<?xml version="1.0" encoding="UTF-8"?>
<!DOCTYPE svg PUBLIC "-//W3C//DTD SVG 1.1//EN" "http://www.w3.org/Graphics/SVG/1.1/DTD/svg11.dtd">
<!-- Creator: CorelDRAW 2021 (64-Bit) -->
<svg xmlns="http://www.w3.org/2000/svg" xml:space="preserve" width="0.516413in" height="0.462244in" version="1.1" style="shape-rendering:geometricPrecision; text-rendering:geometricPrecision; image-rendering:optimizeQuality; fill-rule:evenodd; clip-rule:evenodd"
viewBox="0 0 10.1 9.04"
 xmlns:xlink="http://www.w3.org/1999/xlink"
 xmlns:xodm="http://www.corel.com/coreldraw/odm/2003">
 <defs>
  <style type="text/css">
   <![CDATA[
    .fil0 {fill:#C28565}
   ]]>
  </style>
 </defs>
 <g id="Layer_x0020_1">
  <metadata id="CorelCorpID_0Corel-Layer"/>
  <g id="_2326570668416">
   <path class="fil0" d="M2.35 0.85c0.05,0 0.08,0 0.11,-0.02 0.04,-0.03 0.06,-0.01 0.11,-0.03 0.07,-0.02 0.01,-0.02 0.13,-0.04l0.12 -0.04c0.05,-0 0.09,-0.01 0.14,-0.03l0.08 -0.01c0.07,-0.01 0.16,-0 0.23,-0.03 0.11,-0.05 0.5,-0.03 0.63,-0.01 0.05,0.01 0.02,0.01 0.07,0.02 0.06,0.02 0.17,0.01 0.24,0.02 0.05,0.01 0.05,0.03 0.15,0.04l0.07 0.02c0.06,0.03 0.09,0.02 0.14,0.04 0.03,0.01 0.01,0.02 0.06,0.03 0.03,0.01 0.05,0 0.08,0.01 0.07,0.03 0.01,0.04 0.14,0.04 0.02,0.07 0.04,0.02 0.11,0.07 0.04,0.03 0.02,0.01 0.07,0.02l0.11 0.06c0.07,0.03 0.1,0.08 0.17,0.08 0.01,0.06 0.02,0.03 0.07,0.06 0,0 0.03,0.02 0.03,0.02 0.06,0.04 0.11,0.1 0.18,0.11 0.01,0.05 0.01,0.04 0.07,0.08 0,0 0.01,0.01 0.01,0.01 0,0 0,0 0.01,0.01l0.11 0.08c0,0 0,0 0.01,0l0.11 0.1c0.03,0.03 0.05,0.08 0.1,0.08 0,0.04 0,0.04 0.04,0.04 0,0.04 0.02,0.04 0.08,0.11l0.12 0.14c0,0 0,0 0,0.01l0.15 0.23c0.03,0.04 0.05,0.1 0.08,0.15 0.01,0.02 0.02,0.01 0.03,0.05l0.05 0.11c0.02,0.06 0.01,0.02 0.03,0.06 0.01,0.03 0.01,0.05 0.02,0.07 0.02,0.05 0.02,0.02 0.04,0.07 0.01,0.02 0.01,0.04 0.02,0.07 0.02,0.05 0.03,0.02 0.04,0.06 0.01,0.04 -0.01,0.04 0.01,0.08 0.01,0.03 0.03,0.02 0.03,0.07 0,0.03 -0,0.06 0,0.09 0.02,0.07 0.04,0 0.04,0.14 -0,0.06 0.01,0.12 0.03,0.16 0.01,0.03 0.02,0.03 0.02,0.08l0.01 0.65c0.01,0.03 0.11,0.18 0.23,0.09l0.01 -0.01c0,-0 0,-0 0.01,-0 0.04,-0.04 0.05,-0.04 0.06,-0.1 0.03,-0.18 -0,-0.4 -0,-0.57 0,-0.07 -0.02,-0.09 -0.04,-0.14 -0.02,-0.04 -0.01,-0.11 -0.01,-0.17 -0,-0.1 -0.04,-0.03 -0.05,-0.13 -0.01,-0.17 -0.01,-0.07 -0.04,-0.16 -0.01,-0.04 0.01,0.04 -0,-0.02 -0.03,-0.2 -0.02,-0.03 -0.05,-0.18 -0.01,-0.06 -0.03,-0.05 -0.04,-0.1 -0.01,-0.07 -0.02,-0.05 -0.04,-0.09 -0.01,-0.02 -0.01,-0.05 -0.02,-0.07l-0.09 -0.18c-0.02,-0.05 -0.07,-0.09 -0.08,-0.14l-0.2 -0.31c-0.03,-0.04 -0.04,-0.07 -0.08,-0.07 -0,-0.06 0,-0.03 -0.02,-0.05l-0.09 -0.11c-0.01,-0.01 -0.02,-0.02 -0.04,-0.04l-0.24 -0.24c-0.04,-0.04 -0.11,-0.11 -0.17,-0.11 -0,-0.05 0,-0.02 -0.02,-0.04 -0.03,-0.03 0.02,0.01 -0.01,-0.01l-0.01 -0.01c-0.02,-0.01 -0.01,-0.01 -0.03,-0.03 -0.04,-0.04 -0.08,-0.05 -0.12,-0.08 -0,-0 -0,-0 -0.01,-0.01l-0.01 -0.01c-0,-0 -0,-0 -0.01,-0l-0.09 -0.05c-0,-0 -0,-0 -0.01,-0l-0.08 -0.06c-0.03,-0.02 -0.03,-0.02 -0.07,-0.02 -0.01,-0.07 -0.02,-0.03 -0.08,-0.06 -0.04,-0.03 -0.1,-0.06 -0.14,-0.08 -0.01,-0 -0.01,-0 -0.03,-0.01 -0.02,-0.01 -0,0 -0.02,-0.01 -0.04,-0.03 -0.04,-0.03 -0.11,-0.03 -0.01,-0.06 -0.03,-0.03 -0.08,-0.05 -0.06,-0.02 -0.02,-0.04 -0.15,-0.04 -0.01,-0.05 -0.02,-0.04 -0.08,-0.05 -0.06,-0.01 -0.08,-0.04 -0.14,-0.05 -0.12,-0.02 -0.12,-0.04 -0.25,-0.05 -0.08,-0.01 -0.08,-0.05 -0.31,-0.04 -0.13,0 -0.11,-0.03 -0.21,-0.03 -0.08,-0.01 -0.14,-0.01 -0.22,-0.01 -0.33,-0 -0.11,0.05 -0.43,0.04 -0.1,-0 -0.13,0.02 -0.21,0.04 -0.03,0.01 -0.07,0.01 -0.11,0.01 -0.06,0.01 -0.04,0.01 -0.08,0.03 -0.03,0.01 -0.07,0.01 -0.1,0.02 -0.07,0.02 -0.02,0.02 -0.08,0.04 -0.05,0.01 -0.06,-0.01 -0.1,0.02 -0.03,0.02 -0.04,0.03 -0.08,0.03 -0.07,0.01 -0.03,0.02 -0.08,0.04 -0.06,0.02 -0.03,-0 -0.09,0.04 -0.03,0.02 -0.07,0.01 -0.09,0.03l-0.08 0.04c-0.05,0.02 -0.02,0.02 -0.08,0.04l-0.13 0.06c-0.05,0.03 -0.09,0.01 -0.09,0.07 -0.05,0 -0.06,0.01 -0.1,0.04 -0.02,0.02 -0.03,0 -0.04,0.05 -0.05,0 -0.03,0.01 -0.06,0.04l-0.03 0.03c-0.03,0.03 -0.04,0.03 -0.05,0.08 -0.06,0.01 -0.03,0.01 -0.05,0.06 -0.02,0.05 -0.03,0.01 -0.04,0.06 -0.01,0.06 0.01,0.03 -0.02,0.08 -0.02,0.03 -0.03,0.04 -0.03,0.07 0,0.21 0.01,0.1 0.04,0.21 0.01,0.03 0.01,0.08 0.01,0.12 -0.06,0 -0.03,0 -0.05,0.04 -0.06,0.07 -0.11,0.15 -0.16,0.22l-0.03 0.07c-0,0 -0.01,0.01 -0.01,0.01l-0.15 0.26c-0.01,0.03 -0.01,0.04 -0.02,0.07 -0.01,0.03 -0.01,0.01 -0.03,0.05 -0.01,0.03 -0.01,0.05 -0.02,0.07 -0.01,0.03 -0.02,0.01 -0.03,0.05 -0.01,0.04 -0,0.04 -0.01,0.08 -0.01,0.06 0,-0.01 -0.03,0.05 -0.03,0.05 0,0.1 -0.02,0.15 -0.02,0.05 -0.04,0.04 -0.04,0.13l-0.01 0.32c0.01,0.09 -0.02,0.24 0.03,0.31 0.04,0.06 0.02,0.06 0.02,0.14 0.03,0.02 0.01,0.01 0.04,0.02 0,0.08 0.01,0.17 0,0.22 -0.01,0.07 -0.02,0.08 -0.06,0.13l-0.04 0.04c-0,0 -0,0 -0.01,0.01l-0.03 0.03c-0.02,0.02 -0.03,0.04 -0.05,0.06l-0.05 0.06c-0.03,0.03 -0.04,0.01 -0.04,0.07 -0.05,0 -0.03,0.01 -0.05,0.04l-0.02 0.02c-0.02,0.03 -0.01,0.04 -0.06,0.04 -0,0.05 -0.01,0.03 -0.04,0.05l-0.14 0.15c-0.01,0.02 -0.01,-0.02 -0.01,0.03 -0.05,0 -0.02,-0 -0.05,0.03l-0.01 0.02c-0.08,0.1 -0.09,0.1 -0.15,0.21 -0.03,0.05 -0.03,0.19 0.02,0.26 0.04,0.05 0.05,0.09 0.11,0.14 0.01,0.01 0.02,0.01 0.03,0.03 0.02,0.02 -0,0.01 0.03,0.03l0.03 0.02c0.03,0.02 0.01,0.02 0.04,0.03 0.01,0 0.02,0.01 0.04,0.02l0.03 0.02c0.02,0.01 0.04,0.01 0.05,0.02 0.06,0.02 0.05,0.05 0.12,0.05 -0.01,0.05 -0.07,0.09 -0.1,0.13l-0.01 0.01c-0.04,0.04 -0.02,0.07 -0.04,0.11 -0.04,0.09 0,0.1 0.01,0.16 0.01,0.05 0,0.04 0.03,0.08l0.06 0.07c0.02,0.02 0.03,0.04 0.07,0.04 0,0.03 -0,0.07 -0.01,0.09 -0.02,0.04 -0.04,0.01 -0.04,0.06 0,0.22 -0.02,0.1 0.05,0.23 0.02,0.03 0.03,0.04 0.06,0.06 0.02,0.01 0.02,0.01 0.04,0.02l0.03 0.02c0.03,0.02 0.01,0.02 0.05,0.03 0.03,0.01 0.02,0.01 0.05,0.01 0,0.16 0.01,0.11 -0.03,0.15 -0.02,0.02 -0.01,-0 -0.02,0.04 -0.01,0.02 -0,0.02 -0.02,0.04 -0.04,0.07 -0.02,0.06 -0.04,0.14 -0.01,0.05 -0.03,0.02 -0.03,0.08 0,0.12 0.03,0.1 0.03,0.17 0,0.04 0.01,0.08 0.03,0.11l0.07 0.12c0.02,0.03 0,0.03 0.05,0.04l0 0.04c0.07,0.01 0.02,0.03 0.08,0.08 0.03,0.02 0.05,0.05 0.09,0.06l0.1 0.04c0.1,0.03 0.37,0.01 0.49,0.01 0.26,0 0.21,-0.03 0.29,-0.04 0.07,-0.01 0.14,-0 0.2,-0.03 0.09,-0.04 0.13,-0.02 0.18,-0.04 0.04,-0.02 0.03,-0.04 0.06,-0.04l0.31 0 0.1 0.05c0.05,0.02 0.03,0.03 0.06,0.07l0.04 0.07c0.05,0.08 0.01,0.09 0.07,0.09 0,0.1 0.02,0.07 0.04,0.13 0,0.01 0,0.01 0.01,0.03 0.02,0.05 0.03,0.04 0.04,0.09 0.02,0.08 0.05,0.05 0.05,0.15l0.04 0.02c0,0.08 0.01,0.06 0.04,0.12 0.02,0.05 -0.01,0.03 0.04,0.11 0.02,0.04 0,-0 0.02,0.06 0.01,0.05 0.03,0.06 0.04,0.1l0.04 0.1c0.02,0.05 0,0.06 0.04,0.12 0.04,0.07 0.03,0.07 0.12,0.09 0.05,0.01 0.06,-0.01 0.11,-0.01 0.01,-0.02 0.01,-0.01 0.01,-0.04 0.04,-0 0.04,-0.01 0.04,-0.06 0,-0.05 0.01,-0.1 -0.02,-0.14 -0.03,-0.05 -0.01,0.02 -0.03,-0.05l-0.03 -0.1c-0.01,-0.02 0,0.02 -0.01,-0.02 -0.01,-0.02 -0.01,-0.05 -0.02,-0.07 -0.01,-0.03 -0.01,-0.01 -0.03,-0.05 -0.02,-0.06 0.01,-0.08 -0.05,-0.1 0,-0.02 0,-0.05 -0,-0.08l-0.04 -0.07c-0.03,-0.11 -0.02,-0.05 -0.04,-0.1l-0 -0.02c-0,-0.01 0,-0.01 -0.01,-0.03 -0.02,-0.06 -0.01,0 -0.03,-0.05 -0.01,-0.02 -0.01,-0.04 -0.02,-0.06 -0.02,-0.05 0.01,0.01 -0.02,-0.03l-0.07 -0.16c-0.01,-0.02 -0,-0 -0.01,-0.02 -0.01,-0.02 -0.01,-0.01 -0.02,-0.03 -0,-0 -0,-0.01 -0,-0.01 -0,-0 -0,-0.01 -0,-0.01l-0.04 -0.06c-0,-0 -0,-0 -0,-0.01 -0.02,-0.04 0.01,0.03 -0.01,-0.02l-0.03 -0.05c-0.02,-0.03 -0.01,-0.05 -0.06,-0.05 -0,-0.04 -0,-0.03 -0.03,-0.05l-0.12 -0.1c-0.1,-0.07 -0.05,-0.02 -0.13,-0.04 -0.03,-0.01 -0,0 -0.03,-0.02 -0.07,-0.05 -0.28,-0.02 -0.37,-0.02 -0.08,0 -0.03,0.04 -0.13,0.05 -0.07,0 -0.11,-0.01 -0.12,0.04 -0.06,0 -0.14,-0 -0.18,0.01 -0.06,0.02 -0.07,0.04 -0.14,0.04 -0.21,0 -0.33,0.04 -0.51,0.02 -0.07,-0.01 -0.09,0 -0.14,-0.04l-0.09 -0.1c-0.02,-0.03 -0,0.01 -0.02,-0.03 -0.01,-0.03 -0.04,-0.07 -0.04,-0.09 0,-0.14 -0.01,-0.12 0.05,-0.23l0.03 -0.05c0.03,-0.05 0.05,-0.1 0.05,-0.17 0,-0.06 0.01,-0.13 -0.02,-0.18 -0.02,-0.03 -0.02,-0.07 -0.05,-0.1 -0.1,-0.12 -0.11,-0.07 -0.21,-0.14 0.03,-0.05 0.04,-0 0.04,-0.07 0.06,0 0.06,0 0.09,-0.03 0.01,-0.02 0.05,-0.04 0.05,-0.07 0,-0.12 0.01,-0.07 -0.03,-0.12l-0.03 -0.04c-0,-0 -0,-0 -0.01,-0l-0.12 -0.06c-0.02,-0.02 0,-0.01 -0.04,-0.03 -0.06,-0.03 -0.03,-0.04 -0.08,-0.05l0 -0.02c0.04,-0.01 0.02,-0 0.04,-0.03 0.01,-0.01 0.02,-0.02 0.02,-0.03l0.08 -0.14c0.02,-0.03 0.03,-0.06 0.03,-0.1 0,-0.05 -0.05,-0.15 -0.08,-0.18 -0.04,-0.05 -0.08,-0.08 -0.14,-0.11 -0.05,-0.02 -0.02,-0.03 -0.08,-0.04l-0.13 -0.06c-0.01,-0.01 -0.02,-0.01 -0.03,-0.02 -0.08,-0.06 -0.05,-0.07 -0.05,-0.15 0.06,-0.01 0.01,0.01 0.05,-0.04l0.05 -0.06c0.02,-0.03 0.02,-0.01 0.03,-0.05 0.04,-0 0.04,-0 0.04,-0.04 0.05,-0 0.02,0 0.04,-0.02l0.16 -0.17c0.02,-0.02 0.01,-0.02 0.03,-0.03l0.06 -0.07c0.02,-0.02 0.02,-0.02 0.03,-0.03l0.09 -0.11c0.03,-0.04 0.08,-0.07 0.08,-0.12 0.06,-0 0.03,-0.01 0.06,-0.04l0.02 -0.02c0.02,-0.02 0.01,-0.04 0.02,-0.07 0,-0 0,-0.01 0,-0.01l0.01 -0.02c0.04,-0.06 0.02,-0.24 0.02,-0.32 0,-0.04 -0.01,-0.04 -0.03,-0.06 -0.03,-0.04 -0.01,0.01 -0.02,-0.06 -0.01,-0.1 -0.03,-0.05 -0.04,-0.11 -0.01,-0.04 0,-0.1 -0.01,-0.15 -0.02,-0.15 0,-0.31 0,-0.46 0,-0.09 0.03,-0.05 0.04,-0.11 0.02,-0.08 -0.02,-0.05 0.03,-0.13 0.04,-0.05 0.01,-0.03 0.02,-0.09 0.01,-0.02 0.03,-0.05 0.05,-0.11 0.01,-0.03 0.03,-0.04 0.04,-0.07l0.05 -0.1c0,-0 0,-0.01 0,-0.01l0.11 -0.19c0,-0 0,-0 0.01,-0.01l0.04 -0.06c0.02,-0.03 0.03,-0.04 0.03,-0.08 0.05,-0.01 0.03,-0.01 0.06,-0.04l0.01 -0.01c0,-0 0,-0 0.01,-0.01l0.08 -0.09c0,-0 0,-0 0.01,-0.01l0.04 -0.09c0.01,-0.01 0.01,-0.02 0.02,-0.03l-0.01 -0.01c-0.02,-0.03 -0.02,-0.06 -0.03,-0.09 -0.01,-0.06 -0.03,-0.03 -0.04,-0.09 -0,-0.04 -0,-0.12 0.02,-0.15 0.02,-0.04 0.03,-0.02 0.03,-0.07 0.06,-0.01 0.01,-0 0.12,-0.1 0,-0 0,-0 0.01,-0.01 0,-0 0,-0 0.01,-0.01l0.1 -0.06c0,-0 0,-0 0.01,-0 0,-0 0.01,-0 0.01,-0l0.16 -0.09c0.09,-0.03 0.18,-0.09 0.21,-0.1 0.05,-0.02 0.07,0.01 0.08,-0.05z"/>
   <path class="fil0" d="M5.82 8.65c-0.05,-0.02 -0.2,-0.18 -0.21,-0.22l-0.04 -0.07c-0.01,-0.03 0,0.03 -0,-0.02l-0.03 -0.15 -0.01 -1.73c0,-0 0.05,-0.03 0.05,-0.03l3.79 0c0.03,0 0.03,-0.01 0.06,-0.01 0.01,0.02 0.01,0.03 0.01,0.06 0,0.24 0.01,1.72 -0.01,1.85 -0.01,0.07 0,-0 -0.03,0.06 -0.03,0.05 0.01,0.03 -0.04,0.08 -0,0 -0,0 -0.01,0.01l-0.07 0.08c-0.05,0.06 -0.03,0.05 -0.07,0.05l0 0.03c-0.07,0.01 -0.07,0.01 -0.1,0.06 -0.03,0 -0.06,-0 -0.09,0.01 -0.07,0.03 -0.01,0.04 -0.06,0.04l-2.89 0c-0.03,0 -0.03,-0.02 -0.06,-0.03 -0.05,-0.02 -0.03,-0.01 -0.07,-0.02 -0.06,-0.01 -0.01,-0.01 -0.07,-0.04 -0,-0 -0.01,-0 -0.01,-0 -0,-0 -0.01,-0 -0.01,-0zm-0.62 -2.75c0.07,0 0.09,-0.01 0.17,-0.01l4.25 0c0.05,0 0.18,-0 0.18,0.08 0,0.06 0.03,0.16 -0.14,0.16l-4.33 0c-0.03,0 -0.06,-0.01 -0.08,-0.02 -0.1,-0.04 -0.04,-0.13 -0.04,-0.21zm4.59 0.51c0.06,0 0.07,-0.03 0.12,-0.05 0.04,-0.02 0.06,-0.03 0.09,-0.07l0.06 -0.08c0.02,-0.03 0.06,-0.1 0.06,-0.13 0,-0.08 0.02,-0.17 -0.03,-0.23 -0.02,-0.03 -0.02,-0.06 -0.04,-0.09l-0.01 -0.01c-0,-0 -0,-0 -0,-0.01 -0.01,-0.02 -0.01,-0.02 -0.03,-0.04l-0.12 -0.09c-0.01,-0.01 -0.01,-0.01 -0.03,-0.02 -0.07,-0.04 -0.61,-0.01 -0.72,-0.01l-3.97 0c-0.03,0.05 -0.04,0.03 -0.09,0.06 -0.12,0.09 -0.08,0.08 -0.14,0.17l-0.02 0.03c-0.02,0.05 -0.02,0.25 0,0.3l0.12 0.16c0.05,0.04 0.07,0.04 0.11,0.08 0.03,0.02 0.08,0.02 0.12,0.02l0 1.73c0,0.08 0.01,0.13 0.01,0.2 0,0.08 0.02,0.07 0.05,0.15 0.01,0.03 0,0.02 0.02,0.04 0.03,0.03 0,-0.02 0.02,0.03 0.02,0.05 -0,0.02 0.03,0.07l0.05 0.07c0.02,0.02 0.01,0.03 0.05,0.03 0,0.05 -0,0.02 0.02,0.05l0.02 0.02c0,0 0.01,0.01 0.01,0.01 0.03,0.03 0.05,0.01 0.05,0.06 0.05,0 0.03,0.01 0.07,0.04 0.02,0.02 0.02,0.01 0.04,0.02 0.05,0.02 0.03,0.03 0.1,0.05 0.09,0.02 0,-0 0.07,0.03 0.03,0.02 0.13,0.01 0.18,0.02 0.05,0.01 0.1,0.02 0.17,0.02l2.59 0c0.09,0 0.16,-0.03 0.23,-0.03 0.2,-0.02 0.05,0.01 0.16,-0.04 0.07,-0.03 0.04,-0 0.15,-0.07l0.12 -0.1c0.01,-0.01 0.01,-0.01 0.02,-0.02 0.03,-0.03 0.03,-0 0.04,-0.05 0.06,-0 0.03,-0 0.05,-0.04l0.08 -0.14c0.02,-0.04 0.03,-0.03 0.04,-0.08 0.02,-0.07 0.05,-0.15 0.05,-0.2l0 -1.86 0.04 0z"/>
   <path class="fil0" d="M8.9 1.36c0.05,0 0.06,-0.01 0.08,-0.03 0.02,-0.02 0.05,-0.01 0.08,-0.03 0.03,-0.01 0.02,-0.01 0.04,-0.02 0.03,-0.01 0.09,-0.01 0.12,-0.02 0.04,-0.01 0.08,-0.03 0.11,-0.03l0.21 0 0 0.31c0,0.05 -0.02,0.05 -0.04,0.09 -0.02,0.04 0,0.06 -0.02,0.1l-0.04 0.08c-0.02,0.06 -0.01,0 -0.04,0.07 -0.01,0.01 -0,0.01 -0.01,0.02l-0.16 0.18c-0.02,0.03 -0.01,0.03 -0.06,0.03 -0.01,0.05 -0.01,0.03 -0.04,0.05 -0.08,0.05 -0.09,0.07 -0.15,0.09 -0.05,0.01 -0.04,-0 -0.06,0.04 -0.2,0 -0.05,0.04 -0.28,0.04l0.03 -0.02c0,-0 0.01,-0.02 0.02,-0.02l0.12 -0.12c0.02,-0.02 0.02,-0.04 0.06,-0.04 0,-0.05 0.03,-0.05 0.06,-0.08 0,-0 0,-0 0.01,-0.01l0.04 -0.07c0.03,-0.07 0.02,-0.08 -0.02,-0.14 -0.05,-0.08 -0.16,-0.07 -0.23,-0.01 -0.03,0.03 -0.03,0.05 -0.08,0.06 -0,0.04 -0,0.04 -0.04,0.04 -0,0.05 0,0.02 -0.02,0.04l-0.18 0.2c0,-0.1 0.02,-0.04 0.04,-0.12 0.01,-0.06 -0.01,-0.09 0.02,-0.14 0.02,-0.03 0.01,0.01 0.03,-0.05l0.06 -0.18c0.05,-0.01 0.04,-0.02 0.07,-0.06 0.07,-0.09 0.09,-0.1 0.17,-0.18 0,-0 0.02,-0.02 0.02,-0.02 0.04,-0.03 0.05,0 0.05,-0.06zm-1.08 0.05c-0.03,-0.01 -0,0 -0.02,-0.01 -0.04,-0.02 -0.09,-0.02 -0.13,-0.04 -0.05,-0.02 -0.01,-0.01 -0.07,-0.04 -0.02,-0.01 -0.02,-0 -0.04,-0.01 -0.02,-0.01 -0.01,-0.01 -0.02,-0.01 -0,-0 -0,-0 -0.01,-0.01l-0.03 -0.02c-0.07,-0.03 -0.11,-0.08 -0.17,-0.13 -0,-0 -0.01,-0.01 -0.01,-0.01l-0.11 -0.12c-0.04,-0.05 -0.07,-0.13 -0.11,-0.18 -0.02,-0.04 -0.02,-0.07 -0.03,-0.11 -0.01,-0.02 -0.04,-0.04 -0.04,-0.06l0 -0.37 0.22 0c0.03,0 0.03,0.02 0.06,0.03 0.03,0.01 0.04,0.01 0.08,0.01 0.08,0 0.07,0.02 0.13,0.04l0.09 0.04c0.02,0.01 0.01,0 0.02,0.01 0.06,0.03 0.05,0.05 0.11,0.05 0.01,0.06 -0.01,0.01 0.02,0.04 0.04,0.05 0.1,0.09 0.14,0.14l0.03 0.03c0.03,0.02 -0.02,0.01 0.04,0.02 0,0.06 0.04,0.1 0.07,0.15 0.05,0.08 0.02,0.08 0.06,0.13 0.01,0.01 0,-0.01 0.02,0.03 0.01,0.02 0,0.01 0.01,0.03 0.01,0.07 -0,0.08 0.01,0.14 -0.02,-0.01 -0.01,-0 -0.03,-0.02l-0.04 -0.04c-0.01,-0.01 -0.01,-0.01 -0.02,-0.02l-0.16 -0.16c-0,-0 -0,-0 -0.01,-0.01 -0.03,-0.02 -0.06,-0.08 -0.09,-0.08 -0.1,0 -0.13,-0.03 -0.18,0.06 -0.04,0.07 -0.09,0.08 0.03,0.21 0,0 0,0 0.01,0.01 0,0 0,0 0.01,0.01l0.07 0.07c0.02,0.02 0.03,0 0.04,0.05 0.06,0 0.02,0 0.05,0.04l0.12 0.12c-0.03,0 -0.08,0.01 -0.11,-0zm-1.09 -1.3c0,0.1 -0.02,0.51 0.02,0.58 0.05,0.08 -0,0.08 0.05,0.17 0.03,0.05 0.01,0.06 0.05,0.12 0,0 0,0 0,0.01l0.11 0.21c0.02,0.02 -0.01,0.01 0.04,0.02 0,0.05 0.01,0.04 0.05,0.08 0.02,0.02 -0.01,0.01 0.04,0.02 0,0.04 0,0.04 0.04,0.04 0,0.05 0.01,0.03 0.04,0.05 0.05,0.04 -0.01,0.03 0.06,0.04 0.01,0.06 0,0.03 0.05,0.06 0.02,0.01 0.02,0.01 0.03,0.02 0.02,0.01 0.02,0.01 0.04,0.02l0.07 0.04c0.04,0.02 0.04,0.03 0.08,0.04 0.03,0.01 0.02,0 0.05,0.01l0.04 0.01c0.03,0.02 0.01,0.03 0.08,0.03 0.17,0.01 0.07,0.04 0.19,0.04l0.27 0 0 1.1c0,0.05 0,-0 0.01,0.03l0.01 0.02c0.02,0.05 0.02,0.06 0.06,0.09 0.03,0.02 0.09,0.03 0.13,0.01 0.05,-0.02 0.01,-0 0.03,-0.02 0.08,-0.07 0.05,-0.03 0.05,-0.31l0.26 0c0.09,0 0.12,-0.04 0.2,-0.04 0.07,-0.01 0.04,0.01 0.1,-0.03 0.05,-0.03 0.07,-0.02 0.13,-0.05 0.04,-0.02 0.05,-0.02 0.11,-0.05 0.02,-0.01 0.01,-0 0.02,-0.01l0.09 -0.06c0.03,-0.02 0.02,-0.03 0.06,-0.04 0.01,-0.1 0.05,0.01 0.06,-0.09 0.04,-0 0.04,-0 0.04,-0.04 0.05,-0 0.02,0 0.04,-0.02l0.01 -0.02c0,-0 0.02,-0.02 0.02,-0.02l0.14 -0.2c0.01,-0.02 0.01,-0.04 0.02,-0.06 0.02,-0.04 0.03,-0.04 0.04,-0.09 0.01,-0.1 0.03,-0.01 0.04,-0.1 0,-0.02 -0,-0.05 0,-0.07 0.01,-0.05 0.03,-0.04 0.04,-0.09 0.02,-0.11 0.01,-0.4 0.01,-0.53 0,-0.03 -0.01,-0.03 -0.04,-0.03 -0,-0.04 -0.01,-0.04 -0.04,-0.06 -0,-0 -0.01,-0 -0.01,-0 -0,-0 -0.01,-0 -0.01,-0 -0.08,-0.05 -0.25,-0.02 -0.35,-0.02 -0.11,-0 -0.1,0.04 -0.21,0.03 -0.13,-0 -0.1,0.03 -0.21,0.05l-0.18 0.08c-0,0 -0,0 -0.01,0 -0,0 -0,0 -0.01,0l-0.12 0.08c-0.08,0.06 -0.17,0.13 -0.23,0.21 -0.01,0.01 -0,0 -0.01,0.02 -0,0 -0,0.01 -0,0.01l-0.01 0.02c0,-0.07 0.02,-0.38 -0.01,-0.43 -0.02,-0.03 -0.02,-0.01 -0.03,-0.05 -0.01,-0.04 -0,-0.08 -0.03,-0.12 -0.03,-0.04 -0.01,-0 -0.02,-0.06 -0.01,-0.04 -0.02,-0.04 -0.04,-0.07 -0.01,-0.01 -0.01,-0.02 -0.01,-0.03 -0.01,-0.02 -0.01,-0.01 -0.01,-0.02l-0.06 -0.1c-0,-0 -0,-0 -0.01,-0.01l-0.01 -0.01c-0.03,-0.03 0.01,-0.03 -0.05,-0.03 -0,-0.05 -0.01,-0.04 -0.05,-0.08 -0.02,-0.02 0.01,-0.01 -0.04,-0.02 -0,-0.04 -0,-0.04 -0.04,-0.04 -0,-0.05 -0.01,-0.04 -0.06,-0.04 -0,-0.04 0,-0.02 -0.01,-0.03 -0.03,-0.05 -0.09,-0.06 -0.14,-0.09l-0.01 -0.01c-0.02,-0.01 -0.02,-0.01 -0.04,-0.02l-0.07 -0.03c-0.05,-0.01 -0.05,-0.04 -0.11,-0.04 -0.07,-0.01 -0.08,-0.05 -0.17,-0.05 -0.06,0 -0.12,-0.02 -0.18,-0.02 -0.08,-0.01 -0.33,-0.01 -0.41,0.01 -0,0 -0.01,0 -0.01,0l-0.05 0.03c-0.02,0.02 -0.05,0.04 -0.05,0.07z"/>
   <path class="fil0" d="M6.33 7.29c0,-0.04 0.01,-0.09 0.04,-0.09l2.23 0c0.03,0 0.03,0.01 0.03,0.03l0 0.71 -2.26 0c-0.04,0 -0.04,-0.05 -0.04,-0.09l0 -0.57zm-0.3 -0.26l0 1.1c0,0.03 0.04,0.07 0.08,0.08 0.04,0.01 0.09,0.02 0.13,0.02l2.47 0c0.05,0 0.07,-0.01 0.11,-0.01 0.06,-0.01 0.08,0.01 0.08,-0.05 0.04,-0 0.04,-0.01 0.04,-0.06l0 -1.08c0,-0.03 0,-0.02 -0.02,-0.05l-0.02 -0.02c-0,-0 -0,-0 -0.01,-0.01 -0,-0 -0,-0 -0.01,-0.01 -0.01,-0.01 -0.01,-0.04 -0.09,-0.04l-2.67 0c-0.05,0 -0.11,0.06 -0.11,0.11z"/>
   <path class="fil0" d="M8.05 4.05c0,-0.05 0.02,-0.07 0.04,-0.11 0.02,-0.03 0.02,-0.07 0.02,-0.12 0,0 0,0.01 0,0.01 0.02,0.02 0.02,0.02 0.05,0.03 0,0.07 0.01,0.05 0.03,0.09 0,0 0,0.01 0,0.01l0.02 0.04c0.05,0.08 0.02,0.06 0.06,0.12 0.02,0.03 0.01,-0.01 0.02,0.04l0.04 0.13c0.01,0.03 0.01,0.06 0.01,0.1 0,0.12 -0.02,0.12 0.03,0.2 0.02,0.04 0.01,0.05 0.06,0.07 0.09,0.04 0.22,-0.02 0.3,0.03l0.11 0.08c0.01,0.01 0.01,0.01 0.01,0.02 0,0 0.01,0.01 0.01,0.01 0.06,0.09 -0.01,0.19 0.02,0.29 0.01,0.04 0.01,0.03 0.04,0.05l0.04 0.04c0.06,0 0.13,0 0.19,-0 0.08,-0 0.13,0 0.18,0.05l0.03 0.03c0.04,0.04 0.01,-0 0.03,0.06 0.02,0.05 0.05,0.08 0.05,0.08 0.02,0.02 -0.02,0.02 0.03,0.02 0.1,0 0.13,0.03 0.19,-0.05 0.05,-0.07 0.03,-0.11 0,-0.17l-0.06 -0.11c-0.03,-0.03 0.01,-0.03 -0.05,-0.03 -0,-0.04 -0,-0.04 -0.04,-0.04 -0.01,-0.06 -0.01,-0.03 -0.05,-0.06l-0.11 -0.05c-0.09,-0.03 -0.03,-0.04 -0.17,-0.04 0,-0.06 -0.03,-0.09 -0.03,-0.13 -0.01,-0.05 -0.02,-0.05 -0.05,-0.1 -0.02,-0.04 -0,-0.04 -0.05,-0.05 -0,-0.04 -0,-0.04 -0.04,-0.04 -0,-0.05 -0.01,-0.03 -0.04,-0.06 -0,-0 -0.01,-0.01 -0.02,-0.02l-0.31 -0.08c-0,-0.06 -0.02,-0.08 -0.03,-0.12l-0.01 -0.03c-0.02,-0.14 -0.01,-0.06 -0.04,-0.15 -0.01,-0.03 -0.01,-0.06 -0.03,-0.09l-0.03 -0.08c-0.02,-0.05 -0.07,-0.09 -0.09,-0.15l-0.06 -0.1c-0.02,-0.02 0,0.01 -0.02,-0.02l-0.04 -0.07c-0.02,-0.03 -0.01,0 -0.02,-0.05 -0.1,-0.01 0.01,-0.05 -0.09,-0.06l0 -0.04c-0.06,-0 -0.03,-0 -0.05,-0.04 -0.04,-0.05 -0.03,0.01 -0.04,-0.05 -0.12,-0 -0.02,-0.1 -0.18,-0.01 -0.03,0.02 -0.01,-0.01 -0.03,0.02 -0.04,0.04 0.03,-0.04 -0.01,0.01 -0,0 -0,0.01 -0,0.01 -0.03,0.04 -0.03,0.02 -0.04,0.07 -0.01,0.09 0.01,0.21 -0,0.3 -0.01,0.05 -0.02,0.04 -0.03,0.07l-0.06 0.15c-0.06,0.11 -0.17,0.2 -0.25,0.26 -0,0 -0,0 -0.01,0.01 -0.06,0.05 -0.09,0.02 -0.1,0.08 -0.11,0 -0.09,0.04 -0.17,0.04 -0.07,0.01 -0.13,0.01 -0.19,0.02 -0.16,0.04 -0.78,-0.01 -0.92,0.03 -0.04,0.01 -0.01,0 -0.04,0.02l-0.09 0.06c-0,0 -0,0 -0.01,0l-0.02 0.01c-0.01,0.02 -0.01,-0 -0.01,0.03l-0.04 0 0 0.04c-0.05,0 -0.04,0.02 -0.06,0.06l-0.07 0.18c-0.01,0.08 -0.06,0.03 -0.13,0.06 -0.08,0.04 -0.08,0.03 -0.17,0.08l-0.03 0.02c-0.03,0.03 -0.05,0.03 -0.05,0.07 -0.05,0 -0.03,0.01 -0.06,0.04 -0,0 -0,0 -0.01,0.01l-0.04 0.08c-0.03,0.05 -0.03,-0.01 -0.03,0.14 0,0.02 0.05,0.09 0.08,0.09 0.17,0 0.14,0.02 0.19,-0.04 0.03,-0.03 0.01,-0 0.03,-0.04 0.03,-0.06 0.03,-0.08 0.09,-0.12 0,-0 0,-0 0.01,-0 0.09,-0.07 0.25,0.01 0.34,-0.04 0.03,-0.02 0,-0 0.03,-0.02 0.03,-0.02 0.03,-0 0.05,-0.05 0.01,-0.03 0.01,-0.22 0.01,-0.28 0.01,-0.02 0.08,-0.09 0.1,-0.1 0.12,-0.06 0.11,-0.04 0.26,-0.04 0.16,0 0.61,0.02 0.75,-0 0.09,-0.01 0.08,-0.03 0.14,-0.04 0.03,-0.01 0.02,-0 0.05,-0.01l0.14 -0.05c0.03,-0.01 0.01,-0.01 0.03,-0.02l0.09 -0.04c0.04,-0.03 0.05,-0.01 0.05,-0.06 0.05,-0 0.05,-0 0.06,-0.04 0.05,-0 0.09,-0.04 0.11,-0.08 0.04,-0.04 0.06,-0.06 0.06,-0.11 0.04,-0 0.04,-0.03 0.06,-0.05 0,-0 0,-0 0.01,-0.01 0.02,-0.02 0.03,-0.05 0.03,-0.09l0.03 0z"/>
   <path class="fil0" d="M2.23 3.92l-0.01 0.01c-0.09,0.08 -0.04,0.02 -0.12,0.05 -0.04,0.02 -0.02,0.02 -0.06,0.03 -0.04,-0.03 -0.02,-0.03 -0.08,-0.04 -0.09,-0.02 -0.02,0.01 -0.07,-0.04 -0.02,-0.02 -0.04,-0.04 -0.07,-0.05 -0.08,-0.02 -0.12,-0 -0.16,0.04l-0.02 0.03c-0.02,0.03 -0.03,0.04 -0.03,0.08 0,0.03 0.06,0.1 0.08,0.12 0.02,0.02 0.06,0.06 0.09,0.07 0,0 0.01,0 0.01,0 0.07,0.02 0.03,-0.02 0.07,0.05 0.04,0 0.09,0 0.11,0.01 0.2,0.05 0.03,0.01 0.24,-0.01 0.12,-0.01 0.01,-0.04 0.14,-0.04 0.01,-0.02 0.01,-0.01 0.01,-0.04 0.05,-0 0.05,0 0.06,-0.04 0.05,-0 0.02,0 0.04,-0.02 0.01,-0.01 -0,-0 0.01,-0.01 0,-0 0,-0 0,-0.01 0,-0 0,-0 0,-0.01 0.1,-0.13 -0.08,-0.31 -0.24,-0.18z"/>
  </g>
 </g>
</svg>
