<?xml version="1.0" encoding="UTF-8"?>
<!DOCTYPE svg PUBLIC "-//W3C//DTD SVG 1.1//EN" "http://www.w3.org/Graphics/SVG/1.1/DTD/svg11.dtd">
<!-- Creator: CorelDRAW 2021 (64-Bit) -->
<svg xmlns="http://www.w3.org/2000/svg" xml:space="preserve" width="0.489295in" height="0.489673in" version="1.1" style="shape-rendering:geometricPrecision; text-rendering:geometricPrecision; image-rendering:optimizeQuality; fill-rule:evenodd; clip-rule:evenodd"
viewBox="0 0 8.7 8.7"
 xmlns:xlink="http://www.w3.org/1999/xlink"
 xmlns:xodm="http://www.corel.com/coreldraw/odm/2003">
 <defs>
  <style type="text/css">
   <![CDATA[
    .fil0 {fill:#C28565}
   ]]>
  </style>
 </defs>
 <g id="Layer_x0020_1">
  <metadata id="CorelCorpID_0Corel-Layer"/>
  <g id="_2327644300272">
   <path class="fil0" d="M8.08 8.32l-3.45 0c-0.05,0 -0,0 -0.03,-0.02 -0.1,-0.07 -0.05,0 -0.12,-0.06 -0.02,-0.02 -0.1,-0.09 -0.1,-0.12l0 -1.63c0,-0.03 0.12,-0.15 0.15,-0.15l3.6 0c0.04,0 0.02,0.01 0.05,0.03 0.04,0.02 0.14,0.03 0.14,0.11l0 1.61c0,0.06 -0.01,-0.01 -0.04,0.07 -0.04,0.09 0,0.08 -0.12,0.12 -0,0 -0.01,0 -0.01,0 -0.07,0.03 -0.01,0.04 -0.07,0.04zm-3.7 -2.63c0,-0.05 0.03,-0.02 0.05,-0.07 0.03,-0.06 -0.02,-0.03 0.04,-0.09 0.07,-0.08 0.05,-0.01 0.12,-0.06 0.02,-0.02 0.01,-0.02 0.04,-0.03l3.43 -0c0.02,0.06 0.02,0.04 0.07,0.05l0.07 0.05c0.02,0.02 0.13,0.11 0.13,0.14 0,0.17 0.03,0.28 -0.04,0.28l-3.86 0c-0.08,0 -0.05,-0.13 -0.05,-0.27zm-3.05 -0.67c0.16,0 0.13,0.02 0.21,-0.04 0.05,-0.04 0.15,-0.01 0.22,-0.02 0.09,-0.02 -0.01,-0.03 0.08,-0.05 0.07,-0.02 0.18,0.02 0.25,-0 0.1,-0.03 -0.09,-0.05 0.29,-0.05 0.04,0 0.04,0.05 0.15,0.05 0.16,-0 0.07,0.05 0.14,0.05l0.46 0c0.05,0 0.03,-0.04 0.09,-0.05 0.03,-0 0.11,-0 0.14,-0 0.1,-0.03 -0.13,-0.05 0.33,-0.05 0.01,0.04 0.01,0.02 0.03,0.05 0.46,0 0.21,0.03 0.35,0.05 0.03,0 0.09,-0 0.13,-0 0.05,0.04 0.02,0.06 0.11,0.06 0.06,0 0.12,-0 0.18,-0 0.01,0.05 0.03,0.03 0.05,0.08 -0.04,0.02 -0.08,0.01 -0.14,0.01 -0.03,0.05 -0.01,0.02 -0.04,0.06 -0.1,0.1 -0.03,-0.03 -0.15,0.1 -0.12,0.13 -0.06,0.09 -0.1,0.15 -0.05,0.07 -0.01,0.1 -0.08,0.12 0,0.15 0.01,0.31 0,0.46 -0.01,0.06 -0.02,0.06 -0.06,0.09 0.02,0.03 0.06,0.06 0.06,0.09l0 1.26c0,0.04 -0.03,0.04 -0.05,0.06 -0.02,0.04 -0.01,0.05 -0.03,0.09 -0.18,0 -0.1,0.01 -0.16,0.04 -0,0 -0.01,0 -0.01,0 -0,0 -0.01,0 -0.01,0 -0.1,0.03 -0.03,0.05 -0.2,0.05 -0.02,0.03 -0.02,0.01 -0.03,0.05 -0.03,0 -0.13,-0 -0.16,0 -0.07,0.02 -0.03,0.06 -0.09,0.06l-0.7 0c-0.07,0 -0.01,-0.06 -0.13,-0.06 -0.06,-0 -0.12,0 -0.18,0 -0.01,-0.04 -0.01,-0.02 -0.03,-0.05 -0.18,0 -0.1,-0.03 -0.18,-0.05 -0.05,-0.01 -0.06,0.01 -0.1,-0.01 -0.02,-0.01 -0.02,-0.02 -0.04,-0.03l-0.04 -0.01c-0.03,-0.01 -0.02,-0 -0.04,-0.02 -0.03,-0.03 -0.08,-0.02 -0.12,-0.06 -0,-0 -0,-0 -0.01,-0.01 -0,-0 -0,-0 -0.01,-0.01l-0.02 -0.03c-0.04,-0.04 -0.05,-0.03 -0.09,-0.05l-0.1 -0.05c-0.07,-0.03 -0.1,-0.11 -0.16,-0.14 -0.06,-0.02 -0.02,0.02 -0.08,-0.03l-0.17 -0.17c-0.04,-0.04 -0.07,-0.07 -0.11,-0.11 -0.12,-0.12 -0.06,-0.05 -0.09,-0.14 -0.01,-0.03 0,-0.01 -0.03,-0.04 -0.01,-0.01 -0.02,-0.01 -0.03,-0.02 -0.09,-0.09 -0.08,-0.07 -0.1,-0.13 -0.02,-0.06 -0,-0.02 -0.05,-0.06 -0.06,-0.05 -0.04,-0.05 -0.07,-0.11 -0.01,-0.03 -0.03,-0.03 -0.04,-0.06 -0,-0 -0,-0.01 -0,-0.01 -0.02,-0.08 -0.04,-0.08 -0.05,-0.11 -0.01,-0.04 -0.02,-0.03 -0.04,-0.07 -0.02,-0.04 -0,-0.05 -0.01,-0.1 -0.02,-0.08 -0.02,0 -0.05,-0.07 -0.01,-0.02 -0,-0.08 -0,-0.11 -0.03,-0.02 -0.01,-0.02 -0.05,-0.03 0,-0.05 0,-0.11 -0,-0.16 -0,-0.17 0.01,-0.08 0.04,-0.17 0.02,-0.04 -0,-0.04 0.03,-0.08 0.08,-0.09 0.07,-0.07 0.14,-0.1 0.06,-0.03 0.01,-0 0.04,-0.03 0.03,-0.03 0.04,-0.01 0.08,-0.03 0.02,-0.01 0.01,-0.01 0.02,-0.02 0,-0 0,-0 0.01,-0.01 0,-0 0,-0 0.01,-0.01 0,-0 0.01,-0 0.01,-0l0.04 -0.01c0.06,-0.02 0.02,-0.04 0.1,-0.05 0.02,-0 0.05,0 0.08,0 0.02,-0.03 0.02,-0.01 0.03,-0.05 0.23,0 0.09,-0.04 0.21,-0.05 0.02,-0 0.05,0 0.08,0 0.02,-0.03 0.02,-0.01 0.03,-0.05zm0.96 -2.33c0.05,0 0.1,0.01 0.15,-0 0.04,-0.01 0.03,-0.02 0.05,-0.04 0.03,-0.02 0.03,0.01 0.1,-0.04 0.04,-0.03 0.08,-0.03 0.12,-0.07 0.07,-0.07 0.05,-0.04 0.12,-0.07 0.02,-0.01 0.01,-0 0.03,-0.02 0,-0 0.02,-0.03 0.02,-0.03l0.23 -0.23c0,-0 0,-0 0.01,-0.01l0.03 -0.03c0.02,-0.02 0.03,-0.05 0.06,-0.05 0.1,0 0.09,0.01 0.15,0.07 0.03,0.03 -0,0.02 0.05,0.04l0.16 0.08c0.06,0.04 0.06,0.02 0.12,0.03 0.09,0.02 -0.02,0.05 0.11,0.05 0.05,0 0.12,-0.01 0.16,0.01 0.06,0.03 -0,0.05 0.12,0.04 0.06,-0 0.11,-0.02 0.11,0.04l0 0.71c0,0.06 -0.05,0.01 -0.05,0.14 0,0.16 -0.01,0.07 -0.04,0.13 -0.02,0.03 -0,0.05 -0.01,0.08 -0.01,0.07 -0,0.02 -0.03,0.06 -0.03,0.04 -0,0.09 -0.07,0.11 0,0.12 0.01,0.12 -0.07,0.19 -0.03,0.03 -0.03,0.05 -0.05,0.09 -0.01,0.02 -0,0.01 -0.02,0.03 -0.03,0.03 -0.1,0.09 -0.12,0.12l-0.01 0.04c-0.01,0.04 -0.04,0.06 -0.07,0.09 -0.11,0.1 -0.09,0.04 -0.14,0.09l-0.02 0.02c-0.04,0.04 -0.04,0.04 -0.09,0.06l-0.03 0.01c-0.02,0.01 -0.02,0.02 -0.03,0.03l-0.08 0.03c-0.05,0.04 -0.08,0.01 -0.13,0.03 -0.11,0.03 0.12,0.05 -0.36,0.05 -0.08,0 0.06,-0.05 -0.24,-0.05 -0.02,-0.07 -0.04,-0.03 -0.09,-0.06 -0.04,-0.02 -0.02,-0.03 -0.06,-0.04 -0.06,-0.02 -0.07,-0.04 -0.12,-0.08 -0.08,-0.06 -0.01,0.04 -0.15,-0.1l-0.01 -0.01c-0,-0 -0.01,-0.01 -0.01,-0.01 -0.02,-0.02 -0.02,-0.04 -0.03,-0.07l-0.04 -0.06c-0.09,-0.09 -0.08,-0.05 -0.11,-0.14 -0.02,-0.07 -0.09,-0.08 -0.11,-0.14 -0.01,-0.03 0,-0.01 -0.01,-0.04 -0.02,-0.04 -0.01,-0 -0.04,-0.05 0,-0.02 0,-0.07 -0,-0.09 -0.01,-0.05 -0.01,-0.02 -0.03,-0.06 -0.03,-0.04 -0.01,-0.01 -0.02,-0.07 -0,-0.02 0,-0.03 -0,-0.05 -0.01,-0.03 0,-0 -0.01,-0.02 -0.04,-0.05 -0.02,0.04 -0.03,-0.15 -0,-0.1 -0.05,-0.05 -0.05,-0.11l0 -0.44c0,-0.03 0.01,-0.04 0.04,-0.04 0.09,0 -0.01,0.05 0.14,0.05l0.49 -0c0.01,-0.04 0.01,-0.02 0.03,-0.05zm-2.02 0.08c0,0.15 -0.01,0.08 -0.05,0.15 -0.03,0.06 -0.01,0.3 -0.01,0.39 -0.03,0.01 -0.05,0.01 -0.05,0.05l0 0.76c0,0.04 0.02,0.04 0.05,0.05 0,0.07 0,0.14 0,0.21 0,0.06 -0.01,0.15 0.02,0.19 0.03,0.04 0.04,0.01 0.05,0.07 0,0.02 0,0.08 0,0.1 -0,0.13 0.05,0.1 0.05,0.15 0,0.34 0,0.12 -0.14,0.27 -0.02,0.02 -0.01,0 -0.02,0.02 -0.02,0.04 -0,0.03 -0.02,0.07 -0.02,0.05 -0.07,0.05 -0.1,0.13 -0.01,0.04 -0.05,0.04 -0.05,0.08l0 0.4c0,0.04 0.03,0.03 0.05,0.08 0.01,0.03 -0,0.09 0,0.12 0.01,0.09 0.05,-0 0.05,0.19 0.07,0.04 0.03,0.05 0.06,0.1l0.04 0.06c0.02,0.04 0.04,0.05 0.06,0.09 0.01,0.03 0,0.03 0.01,0.05l0.01 0.02c0,0 0.01,0.01 0.01,0.01 0.03,0.04 0.02,0.08 0.06,0.12 0.1,0.1 0.03,0.08 0.09,0.15 0,0 0.01,0.01 0.01,0.01l0.06 0.06c0.02,0.02 0.01,0.01 0.03,0.02 0.05,0.04 0.02,0.07 0.06,0.11l0.36 0.36c0.09,0.09 0.07,0.01 0.15,0.1l0.01 0.01c0,0 0,0 0.01,0.01l0.06 0.06c0,0 0,0 0.01,0.01l0.01 0.01c0,0 0.01,0 0.01,0 0,0 0.01,0 0.01,0 0.04,0.01 0.05,0.01 0.08,0.04 0.07,0.07 0.02,0.05 0.1,0.07 0.03,0.01 0.01,0 0.04,0.02 0.06,0.04 0.06,0.02 0.11,0.05 0.1,0.08 0.04,0.09 0.21,0.09 0.02,0.06 0.07,0.04 0.11,0.07 0.04,0.03 -0.02,0.02 0.06,0.03 0.02,0 0.07,-0 0.09,-0 0.02,0.03 0.02,0.01 0.03,0.05 0.18,0 0.1,0.02 0.18,0.05 0.03,0.01 0.17,0 0.21,0 0.02,0.03 0.03,0.06 0.09,0.06l0.78 0c0.07,0 0.01,-0.07 0.15,-0.06 0.18,0 0.06,-0.03 0.15,-0.05 0.04,-0.01 0.06,0.01 0.09,-0.01 0.04,-0.02 0.02,-0.03 0.06,-0.04 0.03,-0.01 0.06,0 0.09,-0.01 0.05,-0.02 0,-0.01 0.05,-0.05 0.08,0.12 0.08,0.01 0.08,0.24 0.02,0.03 0.03,0.02 0.03,0.03l0.02 0.03c0,0 0,0.01 0,0.01 0.01,0.03 -0.01,-0 0.01,0.03 0.01,0.02 -0,-0 0.01,0.01 0.04,0.06 0.01,0.07 0.07,0.13l0.09 0.09c0.07,0.08 0.07,0.02 0.13,0.07 0.02,0.02 -0,0.01 0.03,0.02 0.02,0.01 0.08,0 0.11,0 0.02,0.03 0.02,0.01 0.03,0.05l3.63 0c0.01,-0.04 0.01,-0.02 0.03,-0.05l0.13 0 0.06 -0.07c0.05,-0.05 0.03,-0.02 0.06,-0.03 0.12,-0.03 0.09,-0.09 0.13,-0.15l0.09 -0.08 0 -0.13c0.03,-0.02 0.01,-0.02 0.05,-0.03l0 -1.66c0,-0.19 -0.05,-0.11 -0.05,-0.18 0,-0.05 0.05,-0.05 0.05,-0.1l0 -0.61c0,-0.06 -0.05,0 -0.05,-0.19 -0.07,-0.03 -0.12,-0.1 -0.17,-0.16 -0.02,-0.02 -0.03,-0.03 -0.05,-0.05 -0.01,-0.01 -0.02,-0.02 -0.03,-0.03 -0.03,-0.03 0,-0.01 -0.03,-0.02l-0.07 -0.02c-0.09,-0.04 0,-0.04 -0.17,-0.04 -0.02,-0.06 -0.05,-0.05 -0.13,-0.05l-2.21 0c-0.31,0 -0.3,0.06 -0.3,-0.16 0,-0.05 0.05,-0.02 0.05,-0.15 -0,-0.19 0.01,-0.1 0.04,-0.17 0,-0 0,-0.01 0,-0.01l0 -0.07c-0,-0.06 -0.01,-0.25 -0,-0.29 0.03,-0.04 0.06,-0.03 0.06,-0.1l0 -0.71c0,-0.06 -0.03,-0.07 -0.06,-0.09l0 -0.38c-0.03,-0.08 -0.05,0.1 -0.05,-0.28 -0.04,-0.01 -0.02,-0.01 -0.05,-0.03l0 -0.18c-0.03,-0.02 -0.01,-0.02 -0.05,-0.03 0,-0.19 -0.04,-0.1 -0.05,-0.23 -0.01,-0.11 -0.02,-0.04 -0.04,-0.1 -0.02,-0.03 -0.01,-0.08 -0.01,-0.12 -0.04,-0.03 -0.05,-0.05 -0.06,-0.09 -0,-0 -0,-0.01 -0,-0.01 -0,-0 -0,-0.01 -0,-0.01 -0,-0 -0,-0.01 -0,-0.01 -0.02,-0.04 -0.03,-0.01 -0.04,-0.06 -0.01,-0.06 0.02,-0.06 -0.03,-0.11 -0.03,-0.03 -0.02,-0.04 -0.03,-0.07 -0.01,-0.04 -0.02,-0.01 -0.04,-0.05 -0.02,-0.05 -0.01,-0.06 -0.04,-0.1l-0.01 -0.01c-0,-0 -0.01,-0.01 -0.01,-0.01l-0.03 -0.04c-0,-0 -0,-0.01 -0,-0.01 -0.03,-0.08 -0.03,-0.05 -0.06,-0.1 -0.03,-0.06 -0.01,-0.06 -0.07,-0.12 -0.05,-0.05 -0.03,-0.07 -0.07,-0.12l-0.14 -0.15c-0.04,-0.04 -0.08,-0.07 -0.09,-0.12 -0.01,-0.04 -0.03,-0.05 -0.11,-0.13l-0.02 -0.02c-0,-0 -0,-0 -0.01,-0.01l-0.07 -0.07c-0.07,-0.07 -0.06,0 -0.16,-0.11 -0.1,-0.1 -0.07,-0.06 -0.17,-0.12 -0.06,-0.04 -0.07,-0.01 -0.13,-0.08 -0,-0 -0,-0 -0.01,-0.01 -0.06,-0.06 -0.09,-0.03 -0.13,-0.09 -0.23,0 -0.07,-0.04 -0.21,-0.05 -0.13,-0.01 -0.02,-0.05 -0.22,-0.05 -0.12,-0 -0.03,-0.03 -0.11,-0.05 -0.08,-0.02 -0.56,-0 -0.68,-0 -0.07,0.02 0.07,0.05 -0.23,0.05 -0.01,0.04 -0.01,0.02 -0.03,0.05 -0.02,0 -0.07,-0 -0.09,-0 -0.07,0.01 -0.03,0.04 -0.1,0.05 -0.1,0.01 -0.03,-0.02 -0.12,0.03 -0.03,0.02 -0.07,0.02 -0.1,0.05 -0.05,0.04 -0.08,0.02 -0.13,0.08 -0.03,0.04 -0.04,0.04 -0.09,0.05 -0,0 -0.01,0 -0.01,0l-0.09 0.08c-0.01,0.01 -0.01,0.01 -0.02,0.02 -0.03,0.03 -0.02,0.03 -0.07,0.04 -0.08,0.02 -0.03,0 -0.09,0.07l-0.19 0.19c-0.06,0.05 -0.03,0.08 -0.09,0.14 -0.04,0.03 -0.13,0.11 -0.15,0.15 -0.03,0.06 0.02,0.07 -0.06,0.09l0 0.15c0.11,0.03 0,0.11 0.09,0.11 0.22,0 0.18,0.03 0.25,-0.04l0.04 -0.08c0.02,-0.06 0.09,-0.09 0.13,-0.14 0.08,-0.09 -0.06,0.01 0.12,-0.18l0.05 -0.05c0.03,-0.03 0.05,-0.06 0.08,-0.08 0.03,-0.01 0.03,-0 0.06,-0.02 0.05,-0.02 0.08,-0.08 0.12,-0.12 0.05,-0.04 0.07,-0.01 0.13,-0.07 0.01,-0.02 0,-0 0.02,-0.02 0,-0 0.01,-0.01 0.01,-0.01 0.04,-0.04 0.04,-0.02 0.09,-0.04 0.03,-0.01 0.02,-0.03 0.06,-0.04l0.06 -0.02c0.03,-0.02 -0,-0.02 0.05,-0.03 0.03,-0.01 0.05,-0 0.07,-0 0.11,-0.01 -0.05,-0.05 0.24,-0.05 0.02,-0.03 0.02,-0.01 0.03,-0.05 0.18,0 0.37,-0 0.54,-0 0.1,0 0.05,0.01 0.1,0.04 0.04,0.02 0.07,0.01 0.12,0.01 0.12,0 0.01,0.05 0.21,0.05 0.01,0.01 0.01,0.02 0.02,0.03l0.13 0.06c0.08,0.04 0.04,-0 0.13,0.09 0,0 0,0 0.01,0.01 0,0 0,0 0.01,0.01 0.07,0.06 -0.01,-0.04 0.15,0.1 0.03,0.03 0.06,0.02 0.09,0.04l0.15 0.15c0.01,0.01 0.01,0.01 0.02,0.02l0.08 0.08c0.04,0.04 0.01,0.06 0.04,0.1 0.05,0.06 0.11,0.08 0.13,0.16 0.02,0.06 -0.02,0.01 0.03,0.06 0.03,0.03 0.06,0.04 0.08,0.09 0.02,0.06 0.01,0.06 0.07,0.11 0.03,0.03 0.03,0.05 0.04,0.08 0.01,0.03 0.02,0.02 0.04,0.05 0,0 0,0.01 0,0.01 0.01,0.03 0.01,0.05 0.03,0.08 0.04,0.04 0.03,-0.01 0.03,0.14 0.07,0.05 0.03,0.06 0.08,0.12 0.03,0.03 0,-0.02 0.02,0.03l0.03 0.07c0.04,0.06 0.03,0.05 0.03,0.12 0.01,0.07 0.02,0.03 0.04,0.07 0.02,0.04 0.01,0.12 0.01,0.17 0.03,0.02 0.01,0.02 0.05,0.03 0,0.3 0.03,0.16 0.05,0.23 0,0.03 -0,0.07 -0,0.1 0,0.1 0.05,0.05 0.05,0.15l-0 0.28c0.01,0.1 0.06,0.07 0.06,0.13l0 0.63c0,0.04 -0.04,0.04 -0.06,0.08 -0.02,0.05 -0.01,0.32 -0.01,0.39 -0.04,0.01 -0.02,0.01 -0.05,0.03 0,0.25 -0,0.13 -0.04,0.21 -0.02,0.03 0,0.04 -0.02,0.06 -0.01,0.02 -0.01,0.03 -0.05,0.02 -0.07,-0.01 0,0 -0.05,-0.03 -0.02,-0.02 0,-0 -0.02,-0.01 -0.02,-0.01 -0.02,-0 -0.03,-0.01 -0.1,-0.03 0.01,-0.05 -0.18,-0.05 -0.02,-0.03 -0.02,-0.01 -0.03,-0.05 -0.3,0 -0.16,-0.03 -0.23,-0.05l-0.16 0c-0.06,-0.09 -0.12,-0.06 -0.23,-0.06 -0.01,-0.04 -0.01,-0.02 -0.03,-0.05 -0.16,0 -0.2,-0.02 -0.05,-0.15l0.05 -0.05c0,-0 0,-0 0.01,-0.01 0,-0 0,-0 0.01,-0.01 0.05,-0.05 0.09,-0.08 0.12,-0.15l0.01 -0.03c0.01,-0.02 0.01,-0.01 0.02,-0.03l0.03 -0.07c0,-0 0,-0.01 0.01,-0.01l0.04 -0.09c0.01,-0.03 -0,-0 0.01,-0.02 0.02,-0.03 0,0.02 0.02,-0.03 0.01,-0.03 0,-0.01 0.01,-0.04 0.02,-0.07 0.03,-0.02 0.06,-0.08l0.01 -0.05c0,-0 0,-0.01 0,-0.01 0.06,-0.1 0.04,-0.07 0.04,-0.22 0.04,-0.01 0.02,-0.01 0.05,-0.03 0,-0.05 -0.01,-0.1 0,-0.15 0.01,-0.03 0,-0.01 0.02,-0.03 0.03,-0.04 0.03,0.02 0.03,-0.07l-0 -0.31c-0,-0.11 0.05,-0.11 0.05,-0.15 0,-0.28 -0.03,-0.11 -0.05,-0.22 -0.01,-0.07 -0,-0.29 -0,-0.37 -0.09,-0.06 -0.02,-0.02 -0.06,-0.1 -0.06,-0.11 -0.22,-0.07 -0.32,-0.07 -0.05,0 -0.04,0.05 -0.09,0.05 -0.11,0 0,-0.05 -0.16,-0.05 -0.1,0 -0.1,0.02 -0.16,-0.02 -0.06,-0.05 -0.06,-0.02 -0.1,-0.04 -0.03,-0.02 -0.02,-0.02 -0.05,-0.04l-0.08 -0.04c-0.04,-0.02 -0.03,0.01 -0.08,-0.02l-0.2 -0.2c-0,-0 -0.01,-0.01 -0.01,-0.01 -0,-0 -0,-0 -0.01,-0.01 -0.04,-0.04 -0.08,-0.02 -0.15,-0.02 -0.01,0.01 -0.01,0.02 -0.03,0.04l-0.03 0.02c-0.05,0.05 -0.11,0.09 -0.12,0.15 -0.01,0.04 -0.08,0.12 -0.18,0.2l-0.05 0.05c-0.01,0.01 -0.02,0.02 -0.03,0.03 -0,0 -0,0 -0.01,0.01 -0,0 -0,0 -0.01,0.01l-0.08 0.08c-0.05,0.05 -0.06,0.02 -0.12,0.06 -0.02,0.02 -0.01,0.01 -0.04,0.02l-0.1 0.05c-0.04,0.01 -0.07,-0.01 -0.1,0.01 -0.04,0.02 -0.01,0.04 -0.06,0.04l-0.39 0c-0.06,0 0,-0.05 -0.19,-0.05 -0.02,-0.07 -0.07,-0.04 -0.11,-0.08 -0.02,-0.02 0.02,-0 -0.03,-0.02 -0.03,-0.01 -0.09,-0.01 -0.12,0 -0.04,0.02 -0.03,0.03 -0.07,0.04 -0.08,0.02 -0.05,0.03 -0.05,0.19 0,0.16 -0.06,0.12 -0.06,0.18 0,0.11 -0.03,0.18 0.06,0.24 0,0.08 0,0.15 0,0.23 -0,0.21 -0,0.13 0.04,0.19 0.02,0.03 0.01,0.07 0.01,0.1 -0,0.12 0.05,0.06 0.05,0.18 0,0.2 0.01,0.05 0.05,0.19 0,0 0,0.01 0,0.01l0.01 0.02c0.01,0.01 0.02,0.02 0.02,0.03 0.01,0.01 0,-0 0.01,0.03l0.02 0.06c0.02,0.04 0.03,0.08 0.06,0.11 0.03,0.04 0.03,0.07 0.06,0.11 0.04,0.06 0.01,-0 0.03,0.06 0.01,0.03 -0,0.01 0.02,0.03 0,0 0.01,0.01 0.01,0.01l0.17 0.18c0.02,0.06 -0.02,0.02 0.02,0.06 0.02,0.02 0.01,-0.01 0.04,0.04 -0.05,0.03 -0.07,0 -0.12,0.02 -0.05,0.01 -0.02,0.03 -0.08,0.05 -0.09,0.02 -0.13,-0.03 -0.19,0.06 -0.31,0 -0.13,0.05 -0.28,0.05 -0.25,0 -0.01,0.05 -0.27,0.05 -0.02,0.03 -0.02,0.01 -0.03,0.05 -0.18,0 -0.1,0.03 -0.19,0.05 -0.02,-0.09 -0.07,0.01 -0.06,-0.18 0.01,-0.32 -0.05,0.09 -0.05,-0.42 0,-0.19 -0.05,-0.11 -0.05,-0.18l0 -0.66c0,-0.06 0.05,0.02 0.05,-0.18 -0,-0.48 0.05,-0.14 0.05,-0.39 -0,-0.14 0.06,-0.09 0.06,-0.15 0,-0.07 0.02,-0.17 -0.03,-0.22 -0.01,-0.01 -0.01,-0.01 -0.03,-0.02 -0.02,-0.02 -0.05,-0.06 -0.08,-0.07 -0.09,-0.04 -0.15,0.03 -0.2,0.08 -0.08,0.08 -0.01,0.08 -0.05,0.15 -0.03,0.05 -0.02,-0.02 -0.04,0.06 -0,0.02 -0,0.08 -0,0.1z"/>
   <path class="fil0" d="M5.27 7.53c0,0.07 -0.03,0.28 0.09,0.28l1.93 0c0.03,0 0.04,-0.03 0.09,-0.08 0.01,-0.01 0.01,-0.01 0.02,-0.02 0.04,-0.04 0.03,0.02 0.03,-0.18 0,-0.05 -0.04,-0.03 -0.08,-0.05 -0.04,-0.02 -0.02,-0.06 -0.07,-0.06l-1.91 0c-0.03,0 -0.1,0.07 -0.1,0.1z"/>
   <path class="fil0" d="M5.95 6.96c0.07,0.02 0.1,0.11 0.15,0.11l1.24 0c0.05,0 0,0 0.02,-0.01 0,-0 0.01,-0 0.01,-0.01 0,-0 0,-0 0.01,-0.01 0.07,-0.06 0.05,-0.02 0.05,-0.2 0,-0.03 -0.12,-0.15 -0.15,-0.15l-1.18 0c-0.03,0 -0.08,0.05 -0.1,0.1 -0.04,0.13 -0.05,0 -0.05,0.16z"/>
   <path class="fil0" d="M5.27 6.76c0,0.06 -0,0.14 -0,0.2 0,0.07 -0.01,0.03 0.03,0.07 0.06,0.06 -0,0.04 0.2,0.04 0.04,0 0.09,-0.08 0.12,-0.11 0.07,-0.07 0.01,-0.09 -0,-0.11 -0.05,-0.06 -0.01,-0.01 -0.03,-0.07 -0.04,-0.11 -0.14,-0.09 -0.23,-0.09 -0.06,0 -0.01,0.04 -0.09,0.06z"/>
   <path class="fil0" d="M0.53 1.85l0 0.05c0.09,0.03 0.01,0.05 0.08,0.12 0.05,0.06 0,0.04 0.2,0.04 0.04,0 0,0.01 0.06,-0.04 0.04,-0.04 0.03,0 0.03,-0.07 0,-0.06 -0,-0.14 -0,-0.2 -0.17,-0.04 -0.12,-0.1 -0.21,-0.04 -0.03,0.02 0,0.01 -0.03,0.02 -0.02,0.01 -0.03,0 -0.04,0.01 -0.08,0.03 0.02,0.08 -0.08,0.11z"/>
  </g>
 </g>
</svg>
