<?xml version="1.0" encoding="UTF-8"?>
<!DOCTYPE svg PUBLIC "-//W3C//DTD SVG 1.1//EN" "http://www.w3.org/Graphics/SVG/1.1/DTD/svg11.dtd">
<!-- Creator: CorelDRAW 2021 (64-Bit) -->
<svg xmlns="http://www.w3.org/2000/svg" xml:space="preserve" width="0.508331in" height="0.511669in" version="1.1" style="shape-rendering:geometricPrecision; text-rendering:geometricPrecision; image-rendering:optimizeQuality; fill-rule:evenodd; clip-rule:evenodd"
viewBox="0 0 9.85 9.92"
 xmlns:xlink="http://www.w3.org/1999/xlink"
 xmlns:xodm="http://www.corel.com/coreldraw/odm/2003">
 <defs>
  <style type="text/css">
   <![CDATA[
    .str0 {stroke:#C28565;stroke-width:0.13;stroke-linecap:round;stroke-linejoin:round;stroke-miterlimit:2.61313}
    .fil0 {fill:none}
    .fil1 {fill:#C28565}
   ]]>
  </style>
 </defs>
 <g id="Layer_x0020_1">
  <metadata id="CorelCorpID_0Corel-Layer"/>
  <g id="_2327644814496">
   <g>
    <path class="fil0 str0" d="M0.22 6.87c0,-0.02 0.01,-0.03 0.01,-0.07 0,-0.07 0.04,-0.14 0.08,-0.19l0.39 -0.5c0.02,-0.03 0.05,-0.06 0.07,-0.09l0.03 -0.04c0,-0 0,-0 0,-0 0,-0 0,-0 0,-0l0.01 -0.01c0.01,-0.01 0.01,-0.01 0.02,-0.02l0.41 -0.52c0,0.06 0.01,0.11 0.01,0.18l0.05 0.28c0,0.01 0,0.02 0.01,0.04 0.01,0.02 0.02,0.05 0.02,0.07l0.03 0.11c0.04,0.11 0.08,0.21 0.13,0.32 0,0 0,0.01 0.01,0.01l0.1 0.19c0,0 0,0 0,0l0.18 0.27c0.01,0.01 0.01,0.02 0.02,0.03l0.08 0.1c0.02,0.02 0.03,0.03 0.04,0.05l0.21 0.23c0,0 0,0 0,0l0.05 0.05c0.03,0.03 0.06,0.06 0.1,0.09l0.07 0.07c0.01,0.01 0.02,0.01 0.03,0.02 0.02,0.01 0.03,0.03 0.05,0.04 0.01,0.01 0.02,0.01 0.03,0.02 0.05,0.04 0.1,0.08 0.16,0.12 0,0 0,0 0,0l0.05 0.04c0.01,0.01 0.02,0.01 0.03,0.02 0.02,0.01 0.03,0.02 0.05,0.04l0.17 0.1c0,0 0,0 0,0 0,0 0,0 0,0l0.06 0.03c0.04,0.02 0.08,0.04 0.12,0.06l0.16 0.08c0.01,0 0.02,0.01 0.03,0.01 0.01,0.01 0.02,0.01 0.03,0.02l0.17 0.06 0.51 0.13c0.03,0.01 0.05,-0 0.08,0.01 0.09,0.02 0.29,0.01 0.4,0.01 0.03,0 0.03,-0 0.05,-0.01 0.02,-0.01 0.03,-0 0.06,-0 0.03,-0 0.03,-0.01 0.05,-0.01 0.04,-0 0.11,-0.03 0.15,-0.03 -0.01,0.03 -0.04,0.05 -0.06,0.08l-0.07 0.09c-0,0 -0.01,0.01 -0.01,0.01l-0.53 0.69c-0,0 -0,0 -0.01,0.01 -0,0 -0,0 -0,0 -0,0 -0,0 -0,0l-0.05 0.06c-0.01,0.01 -0.01,0.01 -0.01,0.02l-0.14 0.19c-0.11,0.15 -0.2,0.18 -0.37,0.24 -0.02,0.01 -0.03,0.01 -0.05,0.01 -0.03,0.01 -0.08,0.01 -0.11,0.02 -0.02,0 -0.01,0.01 -0.03,0.01 -0.03,0 -0.06,-0 -0.09,0.01 -0.07,0.02 -0.18,0.01 -0.26,0.01 -0.05,0 -0.07,-0.01 -0.12,-0.01 -0.04,0 -0.03,-0 -0.06,-0.01 -0.02,-0.01 -0.04,0 -0.06,-0.01 -0.04,-0.01 -0.03,-0.01 -0.06,-0.01l-0.36 -0.1c-0.11,-0.03 -0.21,-0.08 -0.31,-0.13 -0.01,-0 -0.01,-0.01 -0.02,-0.01l-0.04 -0.02c-0,-0 -0.01,-0.01 -0.01,-0.01 -0.01,-0 -0.01,-0 -0.01,-0.01 -0.01,-0.01 -0.01,-0.01 -0.02,-0.01l-0.24 -0.14c-0,-0 -0.01,-0 -0.01,-0.01 -0.02,-0.01 -0.02,-0.02 -0.04,-0.03l-0.33 -0.25c-0.01,-0.01 -0.01,-0.01 -0.02,-0.01 -0.05,-0.04 -0.17,-0.15 -0.22,-0.2l-0.02 -0.02c-0.01,-0.01 -0.03,-0.02 -0.04,-0.03l-0.23 -0.27c-0,-0.01 -0.01,-0.01 -0.01,-0.02 -0.01,-0.01 -0.02,-0.02 -0.03,-0.04 -0.06,-0.09 -0.12,-0.17 -0.17,-0.26 -0,-0 -0,-0 -0,-0l-0.04 -0.07c-0,-0.01 -0.01,-0.02 -0.01,-0.02l-0.07 -0.13c-0,-0 -0,-0.01 -0.01,-0.01l-0.05 -0.11c-0.03,-0.07 -0.12,-0.32 -0.13,-0.41l-0.02 -0.11c-0.01,-0.02 -0,-0.04 -0,-0.07 -0,-0.02 -0.01,-0.03 -0.01,-0.05l0 -0.24zm4.64 -0.94c0.02,-0.02 0.03,-0.03 0.05,-0.04 0.03,-0.02 0.07,-0.05 0.09,-0.08 0.01,-0.01 0.01,-0.01 0.02,-0.02 0.03,-0.02 0.07,-0.09 0.09,-0.12l0.05 -0.11 0.27 0.44c0.01,0.02 0.01,0.03 0.02,0.05l0.02 0.05c0.01,0.03 0.03,0.07 0.04,0.11l0.03 0.11c0.02,0.07 0.02,0.18 0.01,0.25 -0.02,0.12 -0.1,0.24 -0.2,0.3l-0.04 0.03c-0.04,0.02 -0.18,0.07 -0.21,0.07 -0,-0.07 0.01,-0.05 0.01,-0.08l0 -0.18c0,-0.12 -0.01,-0.12 -0.02,-0.18l-0.08 -0.3c-0.02,-0.05 -0.08,-0.18 -0.11,-0.21 -0.02,-0.03 -0.03,-0.04 -0.05,-0.08zm-2.87 -0.73c0,-0.02 0,-0.02 0.01,-0.03 0.01,-0.03 0,-0.05 0.02,-0.1 0.03,-0.07 0.07,-0.12 0.11,-0.19l0.08 -0.11c0.01,0.03 0.01,0.03 0.01,0.07 -0,0.04 0.04,0.19 0.05,0.23 0.05,0.18 0.13,0.35 0.22,0.52l0.35 0.51 0.25 0.26 0.27 0.23c0.01,0.01 0.01,0.01 0.03,0.02 0,0 0,0 0,0l0.11 0.08c0.01,0 0.01,0 0.01,0.01l0.08 0.05c0.01,0.01 0.03,0.02 0.05,0.03l0.2 0.11c0.02,0.01 0.04,0.02 0.05,0.03l0.17 0.08 0.52 0.16c0.02,0 0.02,-0 0.03,0 0.13,0.03 0.28,0.03 0.42,0.03 0.04,0 0.06,-0.01 0.09,-0.01 0.03,-0 0.05,-0.01 0.08,-0.01l-0.04 0.06c-0,0 -0,0 -0,0l-0.04 0.06c-0.08,0.11 -0.11,0.18 -0.24,0.24 -0,0 -0.01,0 -0.01,0 -0,0 -0,0 -0,0l-0.08 0.03c-0.02,0.01 -0.03,0.01 -0.05,0.02 -0.07,0.02 -0.33,0.03 -0.4,0.02 -0.03,-0.01 -0.03,-0.01 -0.07,-0.01 -0.03,-0 -0.03,-0.01 -0.06,-0.01 -0.03,-0 -0.03,-0.01 -0.06,-0.01 -0.1,-0.02 -0.22,-0.06 -0.31,-0.09l-0.04 -0.02c-0,-0 -0.01,-0 -0.01,-0.01 -0.01,-0 -0.01,-0.01 -0.02,-0.01l-0.27 -0.13c-0.09,-0.05 -0.17,-0.1 -0.26,-0.15l-0.04 -0.03c-0.09,-0.06 -0.17,-0.12 -0.25,-0.19l-0.15 -0.14c-0.05,-0.05 -0.21,-0.21 -0.25,-0.27 -0.04,-0.06 -0.09,-0.11 -0.13,-0.17 -0.06,-0.09 -0.12,-0.17 -0.17,-0.27 -0,-0.01 -0,-0.01 -0.01,-0.01l-0.16 -0.34c-0.02,-0.06 -0.03,-0.11 -0.05,-0.16l-0.02 -0.12c-0,-0.02 -0.01,-0.03 -0.01,-0.06l0 -0.18zm3.16 2.39c0.01,0.02 0.01,0.06 0.01,0.09 0,0.05 -0,0.07 -0.02,0.1 -0.04,0.1 -0.08,0.14 -0.16,0.2l-0.17 0.08c-0.08,0.03 -0.2,0.05 -0.2,0.05 -0.04,0.01 -0.07,0 -0.11,0.01 -0.07,0.02 -0.16,0.01 -0.24,0.01 -0.05,0 -0.07,-0.01 -0.11,-0.01 -0.07,-0 -0.06,-0.01 -0.11,-0.01l-0.2 -0.04c-0.03,-0.01 -0.07,-0.02 -0.1,-0.03l-0.36 -0.13c-0.01,-0 -0.02,-0.01 -0.02,-0.01l-0.69 -0.42c-0.06,-0.05 -0.13,-0.1 -0.19,-0.15 -0.03,-0.02 -0.04,-0.04 -0.06,-0.06 -0.02,-0.02 -0.05,-0.04 -0.07,-0.06 -0.06,-0.06 -0.12,-0.13 -0.18,-0.19 -0.05,-0.06 -0.12,-0.14 -0.17,-0.21l-0.08 -0.11c-0.01,-0.02 -0.01,-0.02 -0.02,-0.04l-0.05 -0.08c-0.05,-0.08 -0.1,-0.16 -0.14,-0.24 -0,-0 -0,-0 -0,-0l-0.06 -0.12c-0,-0 -0,-0.01 -0.01,-0.01l-0 -0.01c-0.04,-0.09 -0.07,-0.19 -0.1,-0.28l-0.04 -0.17c-0,-0.03 -0,-0.02 -0.01,-0.05 -0.01,-0.02 0,-0.04 -0.01,-0.06 -0.01,-0.04 -0.02,-0.11 -0.02,-0.16 -0.01,-0.08 0,-0.11 0.01,-0.18 0,-0.02 0,-0.04 0,-0.06 0,-0.02 0.01,-0.03 0.01,-0.05 0.01,-0.03 0.02,-0.06 0.03,-0.09 0.01,-0.03 0.06,-0.08 0.09,-0.1 0.05,-0.04 0.11,-0.07 0.17,-0.07 0.03,-0 0.05,-0.01 0.09,-0.01l0.02 0.01 -0.04 0.15c-0.01,0.03 -0.01,0.06 -0.01,0.09 -0.01,0.05 -0.01,0.14 -0.01,0.19l0.01 0.09c0,0.02 0.01,0.02 0.01,0.04l0.01 0.08c0,0.03 0.01,0.02 0.01,0.04 0.01,0.03 0.01,0.05 0.02,0.08l0.06 0.17c0,0 0,0.01 0,0.01l0.06 0.13 0.23 0.4c0.03,0.04 0.07,0.09 0.1,0.13 0.06,0.09 0.26,0.31 0.34,0.38 0.05,0.05 0.1,0.1 0.16,0.14 0.05,0.04 0.11,0.09 0.17,0.14 0.02,0.01 0.04,0.03 0.06,0.04 0.01,0.01 0.02,0.02 0.03,0.02 0.02,0.01 0.01,0.01 0.03,0.02 0.06,0.04 0.13,0.08 0.18,0.12l0.02 0.01c0,0 0,0 0,0l0.11 0.06c0.07,0.04 0.15,0.07 0.23,0.11 0,0 0,0 0,0 0,0 0.01,0 0.01,0l0.07 0.03c0.02,0.01 0.02,0.01 0.03,0.01 0.08,0.03 0.14,0.05 0.23,0.08l0.13 0.03c0.03,0 0.01,0 0.02,0.01l0.2 0.03c0.06,0 0.13,0 0.19,0 0.07,0 0.21,-0.01 0.27,-0.03 0.01,-0 0.02,-0.01 0.04,-0.01l0.17 -0.08c0.03,-0.02 0.04,-0.02 0.06,-0.04 0.01,-0.01 0.02,-0.02 0.03,-0.02l0.02 -0.02 0.02 0.02zm-0.15 -2.44c0.01,0.04 0.02,0.2 0.01,0.23 -0,0.02 -0.01,0.02 -0.01,0.04 -0.01,0.05 -0.03,0.1 -0.05,0.14 -0.03,0.05 -0.03,0.05 -0.06,0.09 -0.05,0.07 -0.08,0.08 -0.12,0.12 -0.06,0.07 -0.11,0.12 -0.16,0.2l-0.04 0.08c-0.01,0.03 -0.05,0.11 -0.03,0.15 0.03,0.01 0.04,-0.05 0.1,-0.1l0.08 -0.07c0.01,-0.01 0.01,-0.01 0.03,-0.02l0.11 0.23c0,0 0,0 0,0 0,0 0,0.01 0,0.01l0.07 0.3c0,0.07 0.01,0.22 -0,0.28l-0.02 0.12c-0.02,0.01 -0.12,0 -0.14,-0 -0.04,-0.01 -0.07,-0.01 -0.11,-0.02 -0.04,-0.01 -0.09,-0.02 -0.16,-0.03l-0.35 -0.12c-0.13,-0.06 -0.15,-0.07 -0.26,-0.13l-0.11 -0.06c-0.05,-0.02 -0.1,-0.06 -0.14,-0.09l-0.08 -0.05c-0.07,-0.05 -0.16,-0.11 -0.22,-0.17 -0.09,-0.08 -0.26,-0.24 -0.33,-0.32 -0.02,-0.03 -0.04,-0.05 -0.06,-0.07l-0.11 -0.15c-0.12,-0.17 -0.19,-0.28 -0.28,-0.47 -0.01,-0.01 -0,-0.01 -0.01,-0.02 -0.01,-0.02 -0.04,-0.07 -0.03,-0.09 -0.02,-0.02 -0.06,-0.15 -0.07,-0.19 -0.01,-0.03 -0.06,-0.24 -0.04,-0.27 0.01,-0.02 0.26,-0 0.28,0 0.01,0 0.02,0.01 0.04,0.01 0.02,0 0.03,-0 0.05,0 0.02,0 0.02,0.01 0.04,0.01 0.04,0 0.08,0.02 0.12,0.03l0.22 0.07 0.28 0.14c0.05,0.03 0.13,0.06 0.19,0.08 0.07,0.02 0.17,0.05 0.24,0.05 0.03,0 0.06,-0 0.1,-0 0.13,0 0.06,-0 0.14,-0.01 0.04,-0 0.13,-0.05 0.17,-0.07 0.09,-0.06 0.19,-0.19 0.19,-0.3 0,-0.04 0.01,-0.04 0.01,-0.09 -0,-0.04 -0.01,-0.16 0,-0.19 0.07,0.02 0.19,0.1 0.25,0.14 0.05,0.04 0.13,0.12 0.16,0.17 0.03,0.05 0.05,0.08 0.07,0.14 0,0.01 0,0.02 0.01,0.03l0.05 0.18c0,0.01 0,0.02 0,0.04zm-2.59 -0.58c-0,-0.04 0.02,-0.12 0.04,-0.15 0.05,-0.11 0.12,-0.17 0.23,-0.22 0.08,-0.04 0.13,-0.03 0.22,-0.05 0.08,-0.01 0.24,0.01 0.32,0.03 0.01,0 0.01,0 0.02,0l0.46 0.17c0,0 0,0 0,0l0.17 0.09c0.07,0.04 0.16,0.08 0.22,0.13l0.02 0.01c0.01,0.01 0.01,0 0.01,0.01l0.08 0.05c0,0 0,0 0,0 0.02,0.01 0.07,0.04 0.09,0.06 -0,0.05 -0.04,0.12 -0.08,0.16 -0.02,0.02 -0.03,0.02 -0.05,0.03 -0.05,0.03 -0.12,0.06 -0.18,0.06 -0.09,-0 -0.13,0 -0.22,-0.01 -0.02,-0 -0.02,-0.01 -0.03,-0.01l-0.13 -0.04c-0.15,-0.06 -0.19,-0.1 -0.31,-0.15 -0,-0 -0,-0 -0,-0l-0.19 -0.08c-0.06,-0.02 -0.25,-0.07 -0.32,-0.07 -0.03,-0 -0.04,-0.01 -0.06,-0.01 -0.03,-0 -0.05,0 -0.08,-0 -0.03,-0 -0.05,-0.01 -0.07,-0.01 -0.05,-0 -0.11,-0.01 -0.15,0zm-0.44 0.21c-0.02,-0.01 -0.04,-0.01 -0.07,-0.01 -0.03,-0 -0.04,-0.01 -0.07,-0.01 -0.08,-0 -0.15,0.01 -0.23,0.04 -0,0 -0,0 -0,0l-0.13 0.08c-0.1,0.07 -0.18,0.22 -0.26,0.32l-0.37 0.48c-0.01,0.01 -0.01,0.01 -0.02,0.02 -0.01,0.01 -0.01,0.01 -0.02,0.02l-0.07 0.09c-0.01,0.02 -0.02,0.03 -0.03,0.05l-0.04 0.04c-0.01,0.02 -0.02,0.03 -0.03,0.04 -0,0 -0.01,0.01 -0.01,0.01 -0,0 -0,0 -0,0l-0.15 0.19c-0.01,0.01 -0.01,0.01 -0.01,0.02l-0.22 0.29c-0.05,0.07 -0.11,0.13 -0.13,0.23 -0.02,0.06 -0.01,0.07 -0.02,0.11 -0,0.01 -0.01,0.01 -0.01,0.03 -0.01,0.03 -0,0.28 -0,0.31 0,0.03 0.01,0.03 0.01,0.07 0,0.04 0.01,0.04 0.01,0.07 0,0.01 0,0.03 0,0.04l0.14 0.46c0.02,0.04 0.03,0.08 0.05,0.11l0.11 0.21c0.01,0.02 0.02,0.03 0.03,0.05l0.11 0.17c0.13,0.2 0.32,0.43 0.49,0.58l0.13 0.11c0.02,0.01 0.03,0.02 0.04,0.03l0.2 0.16c0.08,0.06 0.17,0.12 0.26,0.18l0.11 0.07c0,0 0,0 0,0 0,0 0,0 0,0 0,0 0,0 0,0 0.01,0.01 0.01,0.01 0.02,0.01 0.1,0.06 0.21,0.11 0.32,0.16l0.21 0.08c0,0 0,0 0,0l0.07 0.02c0.08,0.03 0.16,0.04 0.25,0.07l0.11 0.02c0.01,0 0.01,0.01 0.03,0.01 0.03,0.01 0.04,-0 0.07,0.01 0.03,0.01 0.05,0.01 0.07,0.01 0.04,-0 0.08,0.01 0.14,0.01 0.07,-0 0.15,0.01 0.23,-0.01 0.02,-0.01 0.05,-0 0.08,-0 0.03,-0 0.04,-0.01 0.07,-0.01 0.03,-0 0.07,-0.02 0.1,-0.02 0.01,-0 0.02,-0 0.03,-0.01 0.01,-0 0.05,-0.02 0.06,-0.02 0.02,-0.01 0.04,-0.01 0.06,-0.02 0.02,-0.01 0.03,-0.01 0.05,-0.02 0.01,-0.01 0.02,-0.01 0.03,-0.01l0.11 -0.06c0,-0 0,-0 0,-0 0,-0 0,-0 0,-0 0.09,-0.06 0.1,-0.1 0.17,-0.17 0.01,-0.02 0.02,-0.02 0.03,-0.04 0.01,-0.01 0.02,-0.03 0.04,-0.04 0.01,-0.01 0.01,-0.02 0.02,-0.02l0.36 -0.47c0.03,-0.04 0.07,-0.1 0.11,-0.14 0.01,-0.02 0.02,-0.02 0.03,-0.04l0.49 -0.63c0.05,-0.07 0.08,-0.06 0.14,-0.18l0.03 -0.07c0,-0 0,-0 0,-0l0.04 -0.18c-0,-0.04 -0,-0.1 -0.02,-0.14 -0.05,-0.15 -0.08,-0.11 -0.02,-0.2l0.04 -0.06c0.01,-0.02 0.02,-0.03 0.03,-0.05l0.07 -0.1c0.01,-0.01 0,-0 0.01,-0.01 0.01,-0.01 0.01,-0.01 0.02,-0.02l0.13 -0.19c0.05,-0.06 0.09,-0.13 0.12,-0.2 0,-0.01 0.02,-0.05 0.02,-0.06 0.03,-0.16 0.02,-0.33 -0.04,-0.49l-0.11 -0.25c-0.05,-0.09 -0.14,-0.23 -0.2,-0.31l-0.07 -0.09c-0.02,-0.02 -0.02,-0.02 -0.04,-0.05 -0.01,-0.01 -0.01,-0.01 -0.02,-0.02 -0,-0 -0,-0 -0,-0l-0.02 -0.02c-0.01,-0.01 -0.03,-0.03 -0.04,-0.04 -0.01,-0.02 0,-0.04 0.01,-0.07 0,-0.06 -0,-0.1 -0.01,-0.15 -0.01,-0.12 -0.02,-0.16 -0.05,-0.27 -0.05,-0.18 -0.14,-0.3 -0.28,-0.42l-0.02 -0.02c-0,-0 -0,-0 -0,-0l-0.08 -0.05c-0.05,-0.03 -0.1,-0.06 -0.15,-0.08 -0.02,-0.01 -0.04,-0.02 -0.06,-0.02l-0.18 -0.06c-0.04,-0.01 -0.09,0.01 -0.1,0.05 -0.01,0.03 0,0.07 0.01,0.1l0.01 0.1c0,0.03 0.01,0.05 0.01,0.07 -0.01,-0 -0.02,-0.01 -0.03,-0.02 -0.02,-0.01 -0.02,-0.01 -0.04,-0.02 -0.04,-0.03 -0.09,-0.07 -0.14,-0.1l-0.57 -0.31c-0.12,-0.05 -0.28,-0.1 -0.41,-0.12 -0.02,-0 -0.04,-0 -0.06,-0 -0.02,-0 -0.02,-0.01 -0.04,-0.01 -0.03,-0 -0.08,-0 -0.11,-0l-0.16 0.02c-0.02,0 -0.01,0 -0.02,0.01 -0.07,0.01 -0.13,0.03 -0.19,0.07 -0.1,0.05 -0.18,0.13 -0.24,0.23l-0.14 0.21c-0.02,0.02 -0.03,0.05 -0.05,0.07l-0.14 0.21z"/>
    <path id="_1" class="fil1" d="M0.22 6.87c0,-0.02 0.01,-0.03 0.01,-0.07 0,-0.07 0.04,-0.14 0.08,-0.19l0.39 -0.5c0.02,-0.03 0.05,-0.06 0.07,-0.09l0.03 -0.04c0,-0 0,-0 0,-0 0,-0 0,-0 0,-0l0.01 -0.01c0.01,-0.01 0.01,-0.01 0.02,-0.02l0.41 -0.52c0,0.06 0.01,0.11 0.01,0.18l0.05 0.28c0,0.01 0,0.02 0.01,0.04 0.01,0.02 0.02,0.05 0.02,0.07l0.03 0.11c0.04,0.11 0.08,0.21 0.13,0.32 0,0 0,0.01 0.01,0.01l0.1 0.19c0,0 0,0 0,0l0.18 0.27c0.01,0.01 0.01,0.02 0.02,0.03l0.08 0.1c0.02,0.02 0.03,0.03 0.04,0.05l0.21 0.23c0,0 0,0 0,0l0.05 0.05c0.03,0.03 0.06,0.06 0.1,0.09l0.07 0.07c0.01,0.01 0.02,0.01 0.03,0.02 0.02,0.01 0.03,0.03 0.05,0.04 0.01,0.01 0.02,0.01 0.03,0.02 0.05,0.04 0.1,0.08 0.16,0.12 0,0 0,0 0,0l0.05 0.04c0.01,0.01 0.02,0.01 0.03,0.02 0.02,0.01 0.03,0.02 0.05,0.04l0.17 0.1c0,0 0,0 0,0 0,0 0,0 0,0l0.06 0.03c0.04,0.02 0.08,0.04 0.12,0.06l0.16 0.08c0.01,0 0.02,0.01 0.03,0.01 0.01,0.01 0.02,0.01 0.03,0.02l0.17 0.06 0.51 0.13c0.03,0.01 0.05,-0 0.08,0.01 0.09,0.02 0.29,0.01 0.4,0.01 0.03,0 0.03,-0 0.05,-0.01 0.02,-0.01 0.03,-0 0.06,-0 0.03,-0 0.03,-0.01 0.05,-0.01 0.04,-0 0.11,-0.03 0.15,-0.03 -0.01,0.03 -0.04,0.05 -0.06,0.08l-0.07 0.09c-0,0 -0.01,0.01 -0.01,0.01l-0.53 0.69c-0,0 -0,0 -0.01,0.01 -0,0 -0,0 -0,0 -0,0 -0,0 -0,0l-0.05 0.06c-0.01,0.01 -0.01,0.01 -0.01,0.02l-0.14 0.19c-0.11,0.15 -0.2,0.18 -0.37,0.24 -0.02,0.01 -0.03,0.01 -0.05,0.01 -0.03,0.01 -0.08,0.01 -0.11,0.02 -0.02,0 -0.01,0.01 -0.03,0.01 -0.03,0 -0.06,-0 -0.09,0.01 -0.07,0.02 -0.18,0.01 -0.26,0.01 -0.05,0 -0.07,-0.01 -0.12,-0.01 -0.04,0 -0.03,-0 -0.06,-0.01 -0.02,-0.01 -0.04,0 -0.06,-0.01 -0.04,-0.01 -0.03,-0.01 -0.06,-0.01l-0.36 -0.1c-0.11,-0.03 -0.21,-0.08 -0.31,-0.13 -0.01,-0 -0.01,-0.01 -0.02,-0.01l-0.04 -0.02c-0,-0 -0.01,-0.01 -0.01,-0.01 -0.01,-0 -0.01,-0 -0.01,-0.01 -0.01,-0.01 -0.01,-0.01 -0.02,-0.01l-0.24 -0.14c-0,-0 -0.01,-0 -0.01,-0.01 -0.02,-0.01 -0.02,-0.02 -0.04,-0.03l-0.33 -0.25c-0.01,-0.01 -0.01,-0.01 -0.02,-0.01 -0.05,-0.04 -0.17,-0.15 -0.22,-0.2l-0.02 -0.02c-0.01,-0.01 -0.03,-0.02 -0.04,-0.03l-0.23 -0.27c-0,-0.01 -0.01,-0.01 -0.01,-0.02 -0.01,-0.01 -0.02,-0.02 -0.03,-0.04 -0.06,-0.09 -0.12,-0.17 -0.17,-0.26 -0,-0 -0,-0 -0,-0l-0.04 -0.07c-0,-0.01 -0.01,-0.02 -0.01,-0.02l-0.07 -0.13c-0,-0 -0,-0.01 -0.01,-0.01l-0.05 -0.11c-0.03,-0.07 -0.12,-0.32 -0.13,-0.41l-0.02 -0.11c-0.01,-0.02 -0,-0.04 -0,-0.07 -0,-0.02 -0.01,-0.03 -0.01,-0.05l0 -0.24zm4.64 -0.94c0.02,-0.02 0.03,-0.03 0.05,-0.04 0.03,-0.02 0.07,-0.05 0.09,-0.08 0.01,-0.01 0.01,-0.01 0.02,-0.02 0.03,-0.02 0.07,-0.09 0.09,-0.12l0.05 -0.11 0.27 0.44c0.01,0.02 0.01,0.03 0.02,0.05l0.02 0.05c0.01,0.03 0.03,0.07 0.04,0.11l0.03 0.11c0.02,0.07 0.02,0.18 0.01,0.25 -0.02,0.12 -0.1,0.24 -0.2,0.3l-0.04 0.03c-0.04,0.02 -0.18,0.07 -0.21,0.07 -0,-0.07 0.01,-0.05 0.01,-0.08l0 -0.18c0,-0.12 -0.01,-0.12 -0.02,-0.18l-0.08 -0.3c-0.02,-0.05 -0.08,-0.18 -0.11,-0.21 -0.02,-0.03 -0.03,-0.04 -0.05,-0.08zm-2.87 -0.73c0,-0.02 0,-0.02 0.01,-0.03 0.01,-0.03 0,-0.05 0.02,-0.1 0.03,-0.07 0.07,-0.12 0.11,-0.19l0.08 -0.11c0.01,0.03 0.01,0.03 0.01,0.07 -0,0.04 0.04,0.19 0.05,0.23 0.05,0.18 0.13,0.35 0.22,0.52l0.35 0.51 0.25 0.26 0.27 0.23c0.01,0.01 0.01,0.01 0.03,0.02 0,0 0,0 0,0l0.11 0.08c0.01,0 0.01,0 0.01,0.01l0.08 0.05c0.01,0.01 0.03,0.02 0.05,0.03l0.2 0.11c0.02,0.01 0.04,0.02 0.05,0.03l0.17 0.08 0.52 0.16c0.02,0 0.02,-0 0.03,0 0.13,0.03 0.28,0.03 0.42,0.03 0.04,0 0.06,-0.01 0.09,-0.01 0.03,-0 0.05,-0.01 0.08,-0.01l-0.04 0.06c-0,0 -0,0 -0,0l-0.04 0.06c-0.08,0.11 -0.11,0.18 -0.24,0.24 -0,0 -0.01,0 -0.01,0 -0,0 -0,0 -0,0l-0.08 0.03c-0.02,0.01 -0.03,0.01 -0.05,0.02 -0.07,0.02 -0.33,0.03 -0.4,0.02 -0.03,-0.01 -0.03,-0.01 -0.07,-0.01 -0.03,-0 -0.03,-0.01 -0.06,-0.01 -0.03,-0 -0.03,-0.01 -0.06,-0.01 -0.1,-0.02 -0.22,-0.06 -0.31,-0.09l-0.04 -0.02c-0,-0 -0.01,-0 -0.01,-0.01 -0.01,-0 -0.01,-0.01 -0.02,-0.01l-0.27 -0.13c-0.09,-0.05 -0.17,-0.1 -0.26,-0.15l-0.04 -0.03c-0.09,-0.06 -0.17,-0.12 -0.25,-0.19l-0.15 -0.14c-0.05,-0.05 -0.21,-0.21 -0.25,-0.27 -0.04,-0.06 -0.09,-0.11 -0.13,-0.17 -0.06,-0.09 -0.12,-0.17 -0.17,-0.27 -0,-0.01 -0,-0.01 -0.01,-0.01l-0.16 -0.34c-0.02,-0.06 -0.03,-0.11 -0.05,-0.16l-0.02 -0.12c-0,-0.02 -0.01,-0.03 -0.01,-0.06l0 -0.18zm3.16 2.39c0.01,0.02 0.01,0.06 0.01,0.09 0,0.05 -0,0.07 -0.02,0.1 -0.04,0.1 -0.08,0.14 -0.16,0.2l-0.17 0.08c-0.08,0.03 -0.2,0.05 -0.2,0.05 -0.04,0.01 -0.07,0 -0.11,0.01 -0.07,0.02 -0.16,0.01 -0.24,0.01 -0.05,0 -0.07,-0.01 -0.11,-0.01 -0.07,-0 -0.06,-0.01 -0.11,-0.01l-0.2 -0.04c-0.03,-0.01 -0.07,-0.02 -0.1,-0.03l-0.36 -0.13c-0.01,-0 -0.02,-0.01 -0.02,-0.01l-0.69 -0.42c-0.06,-0.05 -0.13,-0.1 -0.19,-0.15 -0.03,-0.02 -0.04,-0.04 -0.06,-0.06 -0.02,-0.02 -0.05,-0.04 -0.07,-0.06 -0.06,-0.06 -0.12,-0.13 -0.18,-0.19 -0.05,-0.06 -0.12,-0.14 -0.17,-0.21l-0.08 -0.11c-0.01,-0.02 -0.01,-0.02 -0.02,-0.04l-0.05 -0.08c-0.05,-0.08 -0.1,-0.16 -0.14,-0.24 -0,-0 -0,-0 -0,-0l-0.06 -0.12c-0,-0 -0,-0.01 -0.01,-0.01l-0 -0.01c-0.04,-0.09 -0.07,-0.19 -0.1,-0.28l-0.04 -0.17c-0,-0.03 -0,-0.02 -0.01,-0.05 -0.01,-0.02 0,-0.04 -0.01,-0.06 -0.01,-0.04 -0.02,-0.11 -0.02,-0.16 -0.01,-0.08 0,-0.11 0.01,-0.18 0,-0.02 0,-0.04 0,-0.06 0,-0.02 0.01,-0.03 0.01,-0.05 0.01,-0.03 0.02,-0.06 0.03,-0.09 0.01,-0.03 0.06,-0.08 0.09,-0.1 0.05,-0.04 0.11,-0.07 0.17,-0.07 0.03,-0 0.05,-0.01 0.09,-0.01l0.02 0.01 -0.04 0.15c-0.01,0.03 -0.01,0.06 -0.01,0.09 -0.01,0.05 -0.01,0.14 -0.01,0.19l0.01 0.09c0,0.02 0.01,0.02 0.01,0.04l0.01 0.08c0,0.03 0.01,0.02 0.01,0.04 0.01,0.03 0.01,0.05 0.02,0.08l0.06 0.17c0,0 0,0.01 0,0.01l0.06 0.13 0.23 0.4c0.03,0.04 0.07,0.09 0.1,0.13 0.06,0.09 0.26,0.31 0.34,0.38 0.05,0.05 0.1,0.1 0.16,0.14 0.05,0.04 0.11,0.09 0.17,0.14 0.02,0.01 0.04,0.03 0.06,0.04 0.01,0.01 0.02,0.02 0.03,0.02 0.02,0.01 0.01,0.01 0.03,0.02 0.06,0.04 0.13,0.08 0.18,0.12l0.02 0.01c0,0 0,0 0,0l0.11 0.06c0.07,0.04 0.15,0.07 0.23,0.11 0,0 0,0 0,0 0,0 0.01,0 0.01,0l0.07 0.03c0.02,0.01 0.02,0.01 0.03,0.01 0.08,0.03 0.14,0.05 0.23,0.08l0.13 0.03c0.03,0 0.01,0 0.02,0.01l0.2 0.03c0.06,0 0.13,0 0.19,0 0.07,0 0.21,-0.01 0.27,-0.03 0.01,-0 0.02,-0.01 0.04,-0.01l0.17 -0.08c0.03,-0.02 0.04,-0.02 0.06,-0.04 0.01,-0.01 0.02,-0.02 0.03,-0.02l0.02 -0.02 0.02 0.02zm-0.15 -2.44c0.01,0.04 0.02,0.2 0.01,0.23 -0,0.02 -0.01,0.02 -0.01,0.04 -0.01,0.05 -0.03,0.1 -0.05,0.14 -0.03,0.05 -0.03,0.05 -0.06,0.09 -0.05,0.07 -0.08,0.08 -0.12,0.12 -0.06,0.07 -0.11,0.12 -0.16,0.2l-0.04 0.08c-0.01,0.03 -0.05,0.11 -0.03,0.15 0.03,0.01 0.04,-0.05 0.1,-0.1l0.08 -0.07c0.01,-0.01 0.01,-0.01 0.03,-0.02l0.11 0.23c0,0 0,0 0,0 0,0 0,0.01 0,0.01l0.07 0.3c0,0.07 0.01,0.22 -0,0.28l-0.02 0.12c-0.02,0.01 -0.12,0 -0.14,-0 -0.04,-0.01 -0.07,-0.01 -0.11,-0.02 -0.04,-0.01 -0.09,-0.02 -0.16,-0.03l-0.35 -0.12c-0.13,-0.06 -0.15,-0.07 -0.26,-0.13l-0.11 -0.06c-0.05,-0.02 -0.1,-0.06 -0.14,-0.09l-0.08 -0.05c-0.07,-0.05 -0.16,-0.11 -0.22,-0.17 -0.09,-0.08 -0.26,-0.24 -0.33,-0.32 -0.02,-0.03 -0.04,-0.05 -0.06,-0.07l-0.11 -0.15c-0.12,-0.17 -0.19,-0.28 -0.28,-0.47 -0.01,-0.01 -0,-0.01 -0.01,-0.02 -0.01,-0.02 -0.04,-0.07 -0.03,-0.09 -0.02,-0.02 -0.06,-0.15 -0.07,-0.19 -0.01,-0.03 -0.06,-0.24 -0.04,-0.27 0.01,-0.02 0.26,-0 0.28,0 0.01,0 0.02,0.01 0.04,0.01 0.02,0 0.03,-0 0.05,0 0.02,0 0.02,0.01 0.04,0.01 0.04,0 0.08,0.02 0.12,0.03l0.22 0.07 0.28 0.14c0.05,0.03 0.13,0.06 0.19,0.08 0.07,0.02 0.17,0.05 0.24,0.05 0.03,0 0.06,-0 0.1,-0 0.13,0 0.06,-0 0.14,-0.01 0.04,-0 0.13,-0.05 0.17,-0.07 0.09,-0.06 0.19,-0.19 0.19,-0.3 0,-0.04 0.01,-0.04 0.01,-0.09 -0,-0.04 -0.01,-0.16 0,-0.19 0.07,0.02 0.19,0.1 0.25,0.14 0.05,0.04 0.13,0.12 0.16,0.17 0.03,0.05 0.05,0.08 0.07,0.14 0,0.01 0,0.02 0.01,0.03l0.05 0.18c0,0.01 0,0.02 0,0.04zm-2.59 -0.58c-0,-0.04 0.02,-0.12 0.04,-0.15 0.05,-0.11 0.12,-0.17 0.23,-0.22 0.08,-0.04 0.13,-0.03 0.22,-0.05 0.08,-0.01 0.24,0.01 0.32,0.03 0.01,0 0.01,0 0.02,0l0.46 0.17c0,0 0,0 0,0l0.17 0.09c0.07,0.04 0.16,0.08 0.22,0.13l0.02 0.01c0.01,0.01 0.01,0 0.01,0.01l0.08 0.05c0,0 0,0 0,0 0.02,0.01 0.07,0.04 0.09,0.06 -0,0.05 -0.04,0.12 -0.08,0.16 -0.02,0.02 -0.03,0.02 -0.05,0.03 -0.05,0.03 -0.12,0.06 -0.18,0.06 -0.09,-0 -0.13,0 -0.22,-0.01 -0.02,-0 -0.02,-0.01 -0.03,-0.01l-0.13 -0.04c-0.15,-0.06 -0.19,-0.1 -0.31,-0.15 -0,-0 -0,-0 -0,-0l-0.19 -0.08c-0.06,-0.02 -0.25,-0.07 -0.32,-0.07 -0.03,-0 -0.04,-0.01 -0.06,-0.01 -0.03,-0 -0.05,0 -0.08,-0 -0.03,-0 -0.05,-0.01 -0.07,-0.01 -0.05,-0 -0.11,-0.01 -0.15,0zm-0.44 0.21c-0.02,-0.01 -0.04,-0.01 -0.07,-0.01 -0.03,-0 -0.04,-0.01 -0.07,-0.01 -0.08,-0 -0.15,0.01 -0.23,0.04 -0,0 -0,0 -0,0l-0.13 0.08c-0.1,0.07 -0.18,0.22 -0.26,0.32l-0.37 0.48c-0.01,0.01 -0.01,0.01 -0.02,0.02 -0.01,0.01 -0.01,0.01 -0.02,0.02l-0.07 0.09c-0.01,0.02 -0.02,0.03 -0.03,0.05l-0.04 0.04c-0.01,0.02 -0.02,0.03 -0.03,0.04 -0,0 -0.01,0.01 -0.01,0.01 -0,0 -0,0 -0,0l-0.15 0.19c-0.01,0.01 -0.01,0.01 -0.01,0.02l-0.22 0.29c-0.05,0.07 -0.11,0.13 -0.13,0.23 -0.02,0.06 -0.01,0.07 -0.02,0.11 -0,0.01 -0.01,0.01 -0.01,0.03 -0.01,0.03 -0,0.28 -0,0.31 0,0.03 0.01,0.03 0.01,0.07 0,0.04 0.01,0.04 0.01,0.07 0,0.01 0,0.03 0,0.04l0.14 0.46c0.02,0.04 0.03,0.08 0.05,0.11l0.11 0.21c0.01,0.02 0.02,0.03 0.03,0.05l0.11 0.17c0.13,0.2 0.32,0.43 0.49,0.58l0.13 0.11c0.02,0.01 0.03,0.02 0.04,0.03l0.2 0.16c0.08,0.06 0.17,0.12 0.26,0.18l0.11 0.07c0,0 0,0 0,0 0,0 0,0 0,0 0,0 0,0 0,0 0.01,0.01 0.01,0.01 0.02,0.01 0.1,0.06 0.21,0.11 0.32,0.16l0.21 0.08c0,0 0,0 0,0l0.07 0.02c0.08,0.03 0.16,0.04 0.25,0.07l0.11 0.02c0.01,0 0.01,0.01 0.03,0.01 0.03,0.01 0.04,-0 0.07,0.01 0.03,0.01 0.05,0.01 0.07,0.01 0.04,-0 0.08,0.01 0.14,0.01 0.07,-0 0.15,0.01 0.23,-0.01 0.02,-0.01 0.05,-0 0.08,-0 0.03,-0 0.04,-0.01 0.07,-0.01 0.03,-0 0.07,-0.02 0.1,-0.02 0.01,-0 0.02,-0 0.03,-0.01 0.01,-0 0.05,-0.02 0.06,-0.02 0.02,-0.01 0.04,-0.01 0.06,-0.02 0.02,-0.01 0.03,-0.01 0.05,-0.02 0.01,-0.01 0.02,-0.01 0.03,-0.01l0.11 -0.06c0,-0 0,-0 0,-0 0,-0 0,-0 0,-0 0.09,-0.06 0.1,-0.1 0.17,-0.17 0.01,-0.02 0.02,-0.02 0.03,-0.04 0.01,-0.01 0.02,-0.03 0.04,-0.04 0.01,-0.01 0.01,-0.02 0.02,-0.02l0.36 -0.47c0.03,-0.04 0.07,-0.1 0.11,-0.14 0.01,-0.02 0.02,-0.02 0.03,-0.04l0.49 -0.63c0.05,-0.07 0.08,-0.06 0.14,-0.18l0.03 -0.07c0,-0 0,-0 0,-0l0.04 -0.18c-0,-0.04 -0,-0.1 -0.02,-0.14 -0.05,-0.15 -0.08,-0.11 -0.02,-0.2l0.04 -0.06c0.01,-0.02 0.02,-0.03 0.03,-0.05l0.07 -0.1c0.01,-0.01 0,-0 0.01,-0.01 0.01,-0.01 0.01,-0.01 0.02,-0.02l0.13 -0.19c0.05,-0.06 0.09,-0.13 0.12,-0.2 0,-0.01 0.02,-0.05 0.02,-0.06 0.03,-0.16 0.02,-0.33 -0.04,-0.49l-0.11 -0.25c-0.05,-0.09 -0.14,-0.23 -0.2,-0.31l-0.07 -0.09c-0.02,-0.02 -0.02,-0.02 -0.04,-0.05 -0.01,-0.01 -0.01,-0.01 -0.02,-0.02 -0,-0 -0,-0 -0,-0l-0.02 -0.02c-0.01,-0.01 -0.03,-0.03 -0.04,-0.04 -0.01,-0.02 0,-0.04 0.01,-0.07 0,-0.06 -0,-0.1 -0.01,-0.15 -0.01,-0.12 -0.02,-0.16 -0.05,-0.27 -0.05,-0.18 -0.14,-0.3 -0.28,-0.42l-0.02 -0.02c-0,-0 -0,-0 -0,-0l-0.08 -0.05c-0.05,-0.03 -0.1,-0.06 -0.15,-0.08 -0.02,-0.01 -0.04,-0.02 -0.06,-0.02l-0.18 -0.06c-0.04,-0.01 -0.09,0.01 -0.1,0.05 -0.01,0.03 0,0.07 0.01,0.1l0.01 0.1c0,0.03 0.01,0.05 0.01,0.07 -0.01,-0 -0.02,-0.01 -0.03,-0.02 -0.02,-0.01 -0.02,-0.01 -0.04,-0.02 -0.04,-0.03 -0.09,-0.07 -0.14,-0.1l-0.57 -0.31c-0.12,-0.05 -0.28,-0.1 -0.41,-0.12 -0.02,-0 -0.04,-0 -0.06,-0 -0.02,-0 -0.02,-0.01 -0.04,-0.01 -0.03,-0 -0.08,-0 -0.11,-0l-0.16 0.02c-0.02,0 -0.01,0 -0.02,0.01 -0.07,0.01 -0.13,0.03 -0.19,0.07 -0.1,0.05 -0.18,0.13 -0.24,0.23l-0.14 0.21c-0.02,0.02 -0.03,0.05 -0.05,0.07l-0.14 0.21z"/>
   </g>
   <g>
    <path class="fil0 str0" d="M8.94 3.7c-0,0 -0.01,0.01 -0.01,0.02l-0.04 0.08c-0.04,-0.05 -0.04,-0.07 -0.15,-0.19l-0.13 -0.12c-0.08,-0.08 -0.12,-0.19 -0.1,-0.32 0,-0.03 0.01,-0.05 0.01,-0.08 0,-0.04 0,-0.04 0.01,-0.07 0,-0.03 -0,-0.05 0.01,-0.08 0.02,-0.06 0,-0.06 0.02,-0.15 0.01,-0.03 0,-0.21 0,-0.25 0,-0.04 -0.01,-0.12 -0.02,-0.15l-0.03 -0.13c-0.01,-0.02 -0.01,-0.04 -0.02,-0.07l-0.1 -0.28c-0,-0 -0,-0 -0,-0 -0,-0.01 -0.01,-0.02 -0.01,-0.03 -0.01,-0.02 -0.04,-0.1 -0.04,-0.12l0.18 0.11c0.17,0.11 0.33,0.25 0.45,0.41 0.01,0.01 0.01,0.02 0.02,0.03 0.01,0.01 0.01,0.02 0.02,0.03 0.12,0.22 0.12,0.28 0.12,0.54 0,0.03 -0,0.06 -0,0.1l-0.02 0.17 -0.11 0.42c-0,0.01 -0.01,0.02 -0.01,0.03l-0.04 0.1c-0,0 -0,0 -0,0zm-0.58 -0.63c-0.01,0.07 -0.01,0.15 -0.01,0.22 0,0.04 0.01,0.06 0.02,0.1l0.01 0.04c0.02,0.05 0.01,0.04 -0.03,0.05l-0.09 0.03c-0.02,0.01 -0.21,0.06 -0.25,0.06 -0.07,0 -0.03,0.01 -0.08,0.01 -0.09,0 -0.07,0.06 -0.18,-0.1l-0.14 -0.21c-0.01,-0.02 -0.02,-0.04 -0.03,-0.06l-0.05 -0.09c-0.01,-0.02 -0,-0.02 -0.03,-0.02l-0.01 0.01c-0.01,0.1 0,0.18 0.03,0.27l0.01 0.04c0.03,0.09 0.08,0.19 0.14,0.26l0.02 0.02c0.06,0.09 0.25,0.25 0.35,0.32 0.01,0.01 0.01,0 0.02,0.01 0,0 0.01,0.01 0.01,0.01l0.12 0.08c0.05,0.04 0.13,0.09 0.15,0.15 0.02,0.03 0.04,0.12 0.03,0.17 -0.02,0.05 -0.1,0.08 -0.15,0.1 -0.09,0.03 -0.16,0.09 -0.21,0.11 -0.08,0.03 -0.19,0.02 -0.24,-0.05 -0.07,-0.09 -0.05,-0.17 -0.07,-0.18 -0.01,-0.01 -0.02,0.01 -0.03,0.02 -0.04,0.07 -0.03,0.17 0,0.24 0,0 0,0 0,0 0.02,0.04 0.06,0.08 0.1,0.1 0.07,0.04 0.06,0.02 0.12,0.03 0.02,0 0.01,0.01 0.04,0.01 0.04,0 0.09,-0.01 0.12,-0.02 0,-0 0,-0 0,-0 0.04,-0.01 0.07,-0.03 0.1,-0.05 0.08,-0.05 0.19,-0.07 0.28,-0.12l0.06 -0.05c0.06,-0.07 0.07,-0.12 0.07,-0.23 0,-0.02 0,-0.04 -0,-0.05 -0,-0.02 -0.01,-0.02 -0.01,-0.04 -0,-0.02 -0.01,-0.05 -0.02,-0.07 -0.04,-0.1 -0.11,-0.15 -0.19,-0.21 -0.01,-0.01 -0.02,-0.01 -0.03,-0.02l-0.21 -0.15c-0,-0 -0,-0 -0,-0 -0,-0 -0,-0 -0.01,-0l-0.04 -0.03c-0.01,-0.01 -0.02,-0.01 -0.03,-0.02 -0.01,-0.01 -0.01,-0.01 -0.02,-0.02 0.02,-0 0.05,0 0.07,0l0.14 -0.02c0.06,-0.01 0.21,-0.1 0.23,-0.16 0.04,0.03 0.07,0.07 0.11,0.1 0.07,0.07 0.15,0.13 0.2,0.22l0.07 0.14c0.02,0.05 0.04,0.11 0.05,0.16 0.02,0.06 0.02,0.12 0.03,0.18 0.01,0.03 0,0.07 0,0.11 0,0.03 0.01,0.06 0.01,0.09 0,0.02 -0.01,0.07 -0.01,0.09l-0 0.2c-0.01,0.07 -0.01,0.11 -0.01,0.19 0,0.04 -0.01,0.06 -0.01,0.1 -0,0.03 -0,0.07 -0,0.1 -0,0.03 -0.01,0.05 -0.01,0.09 -0,0.04 0,0.05 -0.01,0.09 -0.01,0.03 -0,0.07 -0,0.1 -0,0.02 -0.01,0.02 -0.01,0.04 -0,0.02 -0,0.03 -0,0.05 -0,0.02 -0.01,0.02 -0.01,0.09 -0,0.02 -0.01,0.06 -0.02,0.09 -0,0.03 -0.01,0.02 -0.01,0.04 -0,0.01 -0,0.03 -0,0.05l-0.03 0.13c-0.01,0.02 -0,0.02 -0.01,0.04 -0.01,0.05 -0.03,0.11 -0.05,0.16l-0.1 0.21c-0,0 -0,0 -0,0 -0.03,0.04 -0.05,0.06 -0.09,0.09 -0.06,0.05 -0.15,0.07 -0.23,0.07 -0.04,0 -0.05,0.01 -0.09,0.01 -0.06,0 -0.26,0 -0.3,-0 -0.04,-0.01 -0.05,-0.01 -0.09,-0.01l-0.36 -0.04c-0.04,-0 -0.06,0 -0.1,-0 -0.07,-0.02 -0.21,-0 -0.29,-0.01 -0.03,-0 -0.04,-0.01 -0.09,-0.01 -0.03,0 -0.02,0 -0.05,-0.01 -0.02,-0.01 -0.02,-0 -0.04,-0.01 -0.02,-0 -0.02,-0.01 -0.03,-0.01 -0.16,-0.03 -0.26,-0.08 -0.39,-0.16l-0.09 -0.06c-0.04,-0.03 -0.05,-0.06 -0.09,-0.06 0.01,0.06 0.17,0.21 0.22,0.25l0.13 0.09c0.1,0.05 0.19,0.08 0.3,0.11l0.19 0.03c0.05,-0 0.06,0 0.1,0.01 0.03,0.01 0.07,0 0.1,0 0.04,0 0.05,0.01 0.1,0.01 0.04,0 0.06,0.01 0.09,0.01 0.01,0.04 -0.01,0.05 -0.01,0.07l-0.07 0.33c-0,0.02 -0.01,0.02 -0.01,0.03l-0.01 0.07c-0.01,0.05 -0.01,0.11 -0.02,0.16 -0.01,0.07 -0.02,0.16 -0.02,0.23 0,0.08 -0.01,0.28 0,0.34l0.01 0.08c0,0.01 0.01,0.02 0.01,0.03 0,0.01 0,0.02 0,0.04 0.02,0.08 0.06,0.18 0.11,0.24l0.08 0.07c0,0 0,0 0,0l0.16 0.1 0.56 0.29c0.01,0 0.02,0.01 0.03,0.01 0.01,0 0.01,0 0.02,0.01 0,0 0,0 0,0 0,0 0,0 0,0l0.75 0.3c0,0 0,0 0,0l0.14 0.07 0.22 0.16 0.16 0.19 0.08 0.16c0.01,0.03 0.01,0.05 0.03,0.06 0.02,-0.04 -0,-0.16 -0.02,-0.21 -0.02,-0.05 -0.04,-0.1 -0.06,-0.14 -0.01,-0.01 -0.01,-0.02 -0.02,-0.03l-0.03 -0.05c-0.05,-0.06 -0.1,-0.12 -0.16,-0.17l-0.02 -0.02c-0.01,-0.01 -0.01,-0.01 -0.02,-0.02 -0.02,-0.02 -0.05,-0.04 -0.08,-0.05 -0,-0 -0,-0 -0,-0 -0.11,-0.08 -0.24,-0.13 -0.36,-0.18l-0.47 -0.2 -0.51 -0.25c-0.04,-0.03 -0.09,-0.05 -0.13,-0.08 -0.07,-0.05 -0.17,-0.09 -0.21,-0.16 -0.01,-0.01 -0.02,-0.04 -0.03,-0.06 -0.03,-0.07 -0.04,-0.13 -0.05,-0.21 -0.02,-0.11 -0,-0.44 0.02,-0.56 0,-0.03 0,-0.05 0,-0.08 0,-0.03 0.01,-0.03 0.01,-0.07l0.06 -0.36c0,-0.01 0,-0.02 0,-0.04 0,-0.01 0.01,-0.01 0.01,-0.03 0.01,-0.04 -0,-0.03 0.02,-0.06 0.03,0 0.06,-0 0.09,0 0.03,0.01 0.04,0.01 0.08,0.01 0.11,-0 0.22,0.03 0.34,0.01 0.04,-0.01 0.05,-0.01 0.09,-0.01 0.04,0 0.04,-0.01 0.07,-0.01 0.04,-0.01 0.07,-0 0.12,-0.02 0.09,-0.04 0.17,-0.09 0.23,-0.17l0.1 -0.17 0.1 -0.31c0,-0.01 0.01,-0.01 0.01,-0.03 0,-0.03 0,-0.02 0.01,-0.04 0,-0.01 0,-0.02 0.01,-0.04 0.01,-0.08 0.03,-0.15 0.04,-0.23l0.02 -0.15c0,-0.03 -0,-0.06 0,-0.09 0.01,-0.04 0.01,-0.04 0.01,-0.08 0,-0.06 0.01,-0.09 0.01,-0.15 0,-0.03 0,-0.06 0,-0.09 0,-0.03 0.01,-0.05 0.01,-0.08 0,-0.05 -0,-0.12 0,-0.17 0,-0.06 0.01,-0.11 0.01,-0.17 -0,-0.1 0.01,-0.26 -0,-0.35 -0,-0.03 -0.01,-0.05 -0.01,-0.08 -0,-0.05 -0.02,-0.1 -0.03,-0.15 -0.01,-0.03 -0.02,-0.06 -0.03,-0.09l-0.02 -0.05c-0.01,-0.02 -0.02,-0.04 -0.01,-0.07 0.03,-0.07 0.07,-0.14 0.1,-0.21l0.11 -0.31c0.01,-0.05 0.03,-0.09 0.04,-0.14l0.01 -0.08c0,-0.03 0,-0.01 0.01,-0.03 0,-0.02 0,-0.02 0,-0.04 0,-0.03 0.01,-0.02 0.01,-0.08 0,-0.03 0.01,-0.04 0.01,-0.07 0,-0.05 -0,-0.13 0,-0.18 0.01,-0.08 -0.01,-0.23 -0.03,-0.31l-0.01 -0.02c-0,-0 -0,-0 -0,-0l-0.08 -0.17c-0.01,-0.01 -0.01,-0.02 -0.02,-0.03l-0.04 -0.06c-0.04,-0.06 -0.09,-0.12 -0.14,-0.17 -0.06,-0.07 -0.13,-0.14 -0.21,-0.19l-0.08 -0.06c-0.06,-0.05 -0.13,-0.1 -0.2,-0.14l-0.18 -0.1c-0.02,-0.01 -0.04,-0.02 -0.06,-0.03 -0.03,-0.01 -0.02,-0.03 -0.04,-0.05l-0.11 -0.24c-0.06,-0.13 -0.03,-0.04 -0.04,-0.13 -0.01,-0.08 -0.01,-0.15 -0.03,-0.22 -0,-0.01 -0,-0.01 -0,-0.02 -0.01,-0.02 -0.02,-0.05 -0.02,-0.07 -0.01,-0.02 -0.02,-0.04 -0.03,-0.06l-0.07 -0.1c-0,-0 -0,-0 -0,-0 -0.04,-0.05 -0.13,-0.14 -0.19,-0.17 -0.05,-0.03 -0.1,-0.07 -0.16,-0.09 -0,-0 -0.01,-0 -0.01,-0l-0.13 -0.06c-0.06,-0.02 -0.23,-0.07 -0.29,-0.07 -0.04,-0 -0.05,-0.01 -0.08,-0.01 -0.14,-0.02 -0.21,0.01 -0.26,0.01 -0.05,0 -0.11,0.02 -0.16,0.03l-0.07 0.02c-0.32,0.11 -0.17,0.16 -0.35,0.04l-0.15 -0.09c-0.01,-0.01 -0.02,-0.01 -0.03,-0.02 -0.03,-0.02 -0.05,-0.03 -0.08,-0.04l-0.17 -0.06c-0.02,-0.01 -0.03,-0.01 -0.05,-0.01 -0.04,-0.01 -0.1,-0.02 -0.14,-0.03 -0.02,-0.01 -0.08,-0.01 -0.11,-0.01 -0.05,-0 -0.18,-0 -0.22,0.01 -0.03,0.01 -0.01,0.01 -0.05,0.01 -0.03,0 -0.1,0.03 -0.13,0.04 -0.03,0.01 -0.05,0.02 -0.08,0.03l-0.04 0.02c-0.05,0.03 -0.1,0.05 -0.15,0.09l-0.1 0.08c-0.06,0.05 -0.12,0.11 -0.18,0.17 -0.02,0.02 -0.03,0.04 -0.05,0.07l-0.13 0.21c-0.1,0.21 -0.04,0.16 -0.15,0.2 -0.03,0.01 -0.05,0.02 -0.08,0.03l-0.2 0.09c-0,0 -0,0 -0,0l-0.01 0c-0,0 -0.01,0 -0.01,0.01l-0.24 0.14c-0.02,0.02 -0.05,0.03 -0.07,0.05 -0.01,0.01 -0.02,0.01 -0.03,0.02l-0.13 0.1c-0.08,0.07 -0.14,0.15 -0.2,0.25 -0.04,0.07 -0.07,0.13 -0.09,0.21 -0.02,0.06 -0.04,0.13 -0.05,0.16 -0.02,0.05 -0.03,0.11 -0.04,0.17 -0,0.02 -0.01,0.02 -0.01,0.05 -0,0.02 -0,0.04 -0,0.06 -0,0.01 -0.01,0.03 -0.01,0.05 -0.01,0.07 0.01,0.16 -0,0.23 -0,0.02 -0.01,0.03 -0.02,0.04 -0.1,0.08 -0.18,0.19 -0.22,0.31l-0.01 0.03c-0.01,0.02 -0.01,0.02 -0.01,0.04l-0.02 0.09c-0.01,0.07 -0.02,0.13 -0.01,0.21 0,0.05 -0.01,0.12 0.01,0.17 0.01,0.02 0.01,0.03 0.02,0.03 0.01,-0.02 0.01,-0.03 0.01,-0.05 0,-0.03 0.01,-0.02 0.01,-0.05 0,-0.02 -0,-0.04 0.01,-0.06 0.01,-0.03 0,-0.02 0.01,-0.05 0.01,-0.05 0.03,-0.1 0.04,-0.15l0.05 -0.13c0.02,-0.05 0.11,-0.2 0.15,-0.22 0,0.03 -0,0.07 0,0.1 0,0.02 0.01,0.02 0.01,0.04 0,0.02 -0,0.03 0,0.05 0,0.02 0.01,0.02 0.01,0.04 0.01,0.08 0.04,0.15 0.07,0.23 0,0.01 0,0.01 0.01,0.02l0.01 0.01c0,0 0,0 0,0 0.01,0.01 0.01,0.02 0.02,0.03l0.02 0.03c0.01,0.02 0.03,0.04 0.05,0.04 0.01,-0.03 -0.02,-0.06 -0.02,-0.08 -0.01,-0.02 -0.01,-0.02 -0.01,-0.04 -0,-0.02 -0.01,-0.02 -0.01,-0.04 -0,-0.02 -0,-0.03 -0.01,-0.05 -0.02,-0.08 -0.01,-0.06 -0.01,-0.14 -0,-0.03 -0,-0.23 0.01,-0.26 0.01,-0.06 0,-0.09 0.01,-0.14 0.01,-0.04 0.01,-0.05 0.01,-0.1 0,-0.03 0.01,-0.05 0.01,-0.09 0,-0.03 0.01,-0.06 0.01,-0.09 0,-0.02 0,-0.04 0,-0.05l0.05 -0.21c0.01,-0.05 0.03,-0.1 0.05,-0.15l0.06 -0.13c0.02,-0.05 0.05,-0.1 0.09,-0.14 0.08,-0.1 0.05,-0.06 0.15,-0.16 0.02,-0.02 0.03,-0.03 0.06,-0.05l0.24 -0.17c0.04,-0.03 0.09,-0.05 0.13,-0.08 0.03,-0.02 0.1,-0.06 0.14,-0.07 -0.01,0.03 -0.02,0.05 -0.03,0.08l-0.03 0.08c-0.03,0.11 -0.08,0.23 -0.15,0.32 -0.01,0.02 -0.07,0.07 -0.06,0.09 0.02,0 0.03,-0.01 0.04,-0.02 0.04,-0.03 0.08,-0.07 0.12,-0.11 0.07,-0.08 0.13,-0.18 0.17,-0.27l0.13 -0.26c0,-0 0,-0 0,-0l0.01 -0.02c0.01,-0.01 0.01,-0.01 0.01,-0.02l0.13 -0.24c0.01,-0.01 0.01,-0.02 0.02,-0.04 0.01,-0.01 0.01,-0.01 0.01,-0.02 0.06,-0.09 0.13,-0.17 0.22,-0.24 0.01,-0.01 0.02,-0.02 0.03,-0.03 0.03,-0.03 0.08,-0.05 0.11,-0.07l0.04 -0.02c0.02,-0.01 0.02,-0.01 0.04,-0.02 0.01,-0.01 0.03,-0.01 0.04,-0.02 0.17,-0.09 0.45,-0.09 0.63,-0.05l0.14 0.04c0.07,0.02 0.14,0.05 0.2,0.08l0.1 0.05c0.02,0.01 0.02,0.01 0.04,0.02l-0.23 0.21c-0.02,0.02 -0.1,0.08 -0.09,0.09 0.01,0.02 0.06,-0.01 0.07,-0.01 0.07,-0.02 0.12,-0.05 0.19,-0.09 0,-0 0.02,-0.01 0.02,-0.02l0.3 -0.17c0.03,-0.02 0.08,-0.04 0.12,-0.05 0.01,-0 0.01,-0 0.01,-0l0.08 -0.02c0.02,-0 0.04,-0.01 0.06,-0.01 0.03,-0 0.04,-0.01 0.06,-0.01 0.04,-0 0.1,-0 0.14,-0.01 0.13,-0.01 0.26,0.02 0.38,0.06 0.07,0.02 0.14,0.05 0.21,0.09l0.01 0c0.01,0 0.01,0 0.01,0 0.08,0.04 0.16,0.11 0.22,0.18 0.01,0.01 0.02,0.03 0.03,0.04l0.05 0.09c0.01,0.02 0.01,0.03 0.02,0.05 0.01,0.03 0.02,0.09 0.02,0.13 -0,0.08 -0.01,0.17 -0.04,0.25l-0.04 0.07c-0.08,0.1 -0.2,0.12 -0.31,0.16 -0.04,0.01 -0.08,0.02 -0.12,0.03l-0.38 0.06c-0.03,0 -0.03,0.01 -0.07,0.01 -0.03,0 -0.03,0 -0.06,0.01 -0.02,0.01 -0.04,0 -0.07,0.01l-0.06 0.01c-0.05,0 -0.15,0.03 -0.19,0.03 -0.03,0 -0.03,0.01 -0.06,0.01 -0.03,0 -0.03,-0 -0.07,0.01 -0.03,0.01 -0.11,0.01 -0.15,0.03 -0.01,0 -0.02,0 -0.03,0l-0.06 0.01c-0.04,0.01 -0.09,0.02 -0.13,0.03 -0.01,0 -0.01,0 -0.01,0l-0.14 0.04c-0.07,0.02 -0.14,0.05 -0.21,0.08l-0.05 0.02c-0,0 -0,0 -0,0l-0.04 0.02c-0.07,0.04 -0.16,0.1 -0.22,0.15 -0.09,0.09 -0.16,0.18 -0.23,0.29l-0 0.01c-0,0 -0,0 -0,0l-0.03 0.06c-0,0.01 -0.01,0.02 -0.01,0.02 -0.01,0.04 -0.02,0.07 -0.04,0.11l-0.07 0.3c-0.01,0.02 -0,0.04 -0.01,0.06 -0,0.03 -0.01,0.03 -0.01,0.06 -0,0.03 -0.01,0.03 -0.01,0.06 -0,0.02 -0.01,0.04 -0.02,0.06 -0.05,0.15 -0.15,0.28 -0.29,0.37 -0.03,0.02 -0.05,0.04 -0.09,0.06 -0.01,0.01 -0.03,0.02 -0.05,0.03 -0.01,0 -0.01,0 -0.01,0.01l-0.14 0.06c-0.02,0.01 -0.04,0.01 -0.06,0.02 -0.02,0 -0.04,0.01 -0.03,0.03 0.02,0.03 0.1,-0 0.13,-0 0.02,-0 0.03,0 0.05,-0 0.03,-0 0.01,-0.01 0.04,-0.01 0.11,-0.02 0.23,-0.07 0.32,-0.13 0.01,-0 0.01,-0 0.01,-0.01 0.06,-0.04 0.13,-0.1 0.17,-0.16 0.13,-0.19 0.11,-0.19 0.17,-0.39 0.01,-0.02 0,-0.02 0,-0.04 0,-0.03 0.01,-0.02 0.01,-0.04 0,-0.02 0,-0.03 0.01,-0.04 0.01,-0.02 0.01,-0.01 0.01,-0.04 0,-0.05 0.05,-0.17 0.06,-0.22 0,-0.01 0,-0.01 0,-0.01l0.05 -0.12c0.01,-0.01 0.01,-0.02 0.02,-0.03 0.01,-0.01 0.01,-0.02 0.02,-0.03l0.07 -0.09c0,-0 0,-0 0,-0 0.05,-0.05 0.1,-0.1 0.16,-0.14 0.07,-0.05 0.15,-0.09 0.23,-0.13 0.12,-0.05 0.33,-0.12 0.45,-0.13 0.03,-0 0.01,-0.01 0.03,-0.01 0.02,-0 0.03,0 0.04,-0l0.21 -0.04c0.03,-0 0.03,-0.01 0.08,-0.01 0.02,-0 0.09,-0.02 0.17,-0.02 0.02,-0 0.03,-0.01 0.04,-0.01 0.02,-0.01 0.22,-0.03 0.25,-0.04 0.04,-0.01 0.05,-0 0.08,-0.02l0.16 -0.03c0.02,-0 0.03,-0 0.04,-0 0.06,-0.01 0.13,-0.03 0.19,-0.04l0.06 -0.02c0.05,-0.01 0.1,-0.03 0.15,-0.06l0.06 -0.03c0.02,-0.02 0.04,-0.02 0.06,-0.04l0.05 -0.05c0.03,-0.03 0.05,-0.07 0.08,-0.11 0.01,0.02 0.01,0.03 0.02,0.05 0.08,0.15 0.13,0.3 0.2,0.43 0.04,0.09 0.08,0.2 0.11,0.3 0.01,0.02 0.01,0.02 0.01,0.04 -0.03,-0.02 -0.06,-0.03 -0.09,-0.04 -0.01,-0 -0.03,-0.01 -0.03,-0.01l-0.07 -0.02c-0.08,-0.01 -0.17,-0 -0.24,0.02 -0.1,0.04 -0.23,0.12 -0.28,0.21 -0.03,0.04 -0.05,0.08 -0.07,0.12 -0.01,0.03 -0.04,0.11 -0.04,0.13 0,0.04 0.03,-0.01 0.04,-0.01 0.03,-0.04 0.09,-0.11 0.12,-0.13 0.07,-0.06 0.12,-0.1 0.21,-0.13 0.04,-0.01 0.1,-0.03 0.14,-0.03 0.04,-0 0.05,0.01 0.08,0.01 0.05,0.01 0.09,0.02 0.14,0.05l0.15 0.09c0,0.1 0,0.2 0,0.3 -0,0.03 -0.01,0.04 -0.01,0.07 -0,0.02 0,0.05 -0,0.07 -0,0.02 -0.01,0.03 -0.01,0.07 -0,0.02 0,0.05 -0.01,0.06z"/>
    <path id="_1_0" class="fil1" d="M8.94 3.7c-0,0 -0.01,0.01 -0.01,0.02l-0.04 0.08c-0.04,-0.05 -0.04,-0.07 -0.15,-0.19l-0.13 -0.12c-0.08,-0.08 -0.12,-0.19 -0.1,-0.32 0,-0.03 0.01,-0.05 0.01,-0.08 0,-0.04 0,-0.04 0.01,-0.07 0,-0.03 -0,-0.05 0.01,-0.08 0.02,-0.06 0,-0.06 0.02,-0.15 0.01,-0.03 0,-0.21 0,-0.25 0,-0.04 -0.01,-0.12 -0.02,-0.15l-0.03 -0.13c-0.01,-0.02 -0.01,-0.04 -0.02,-0.07l-0.1 -0.28c-0,-0 -0,-0 -0,-0 -0,-0.01 -0.01,-0.02 -0.01,-0.03 -0.01,-0.02 -0.04,-0.1 -0.04,-0.12l0.18 0.11c0.17,0.11 0.33,0.25 0.45,0.41 0.01,0.01 0.01,0.02 0.02,0.03 0.01,0.01 0.01,0.02 0.02,0.03 0.12,0.22 0.12,0.28 0.12,0.54 0,0.03 -0,0.06 -0,0.1l-0.02 0.17 -0.11 0.42c-0,0.01 -0.01,0.02 -0.01,0.03l-0.04 0.1c-0,0 -0,0 -0,0zm-0.58 -0.63c-0.01,0.07 -0.01,0.15 -0.01,0.22 0,0.04 0.01,0.06 0.02,0.1l0.01 0.04c0.02,0.05 0.01,0.04 -0.03,0.05l-0.09 0.03c-0.02,0.01 -0.21,0.06 -0.25,0.06 -0.07,0 -0.03,0.01 -0.08,0.01 -0.09,0 -0.07,0.06 -0.18,-0.1l-0.14 -0.21c-0.01,-0.02 -0.02,-0.04 -0.03,-0.06l-0.05 -0.09c-0.01,-0.02 -0,-0.02 -0.03,-0.02l-0.01 0.01c-0.01,0.1 0,0.18 0.03,0.27l0.01 0.04c0.03,0.09 0.08,0.19 0.14,0.26l0.02 0.02c0.06,0.09 0.25,0.25 0.35,0.32 0.01,0.01 0.01,0 0.02,0.01 0,0 0.01,0.01 0.01,0.01l0.12 0.08c0.05,0.04 0.13,0.09 0.15,0.15 0.02,0.03 0.04,0.12 0.03,0.17 -0.02,0.05 -0.1,0.08 -0.15,0.1 -0.09,0.03 -0.16,0.09 -0.21,0.11 -0.08,0.03 -0.19,0.02 -0.24,-0.05 -0.07,-0.09 -0.05,-0.17 -0.07,-0.18 -0.01,-0.01 -0.02,0.01 -0.03,0.02 -0.04,0.07 -0.03,0.17 0,0.24 0,0 0,0 0,0 0.02,0.04 0.06,0.08 0.1,0.1 0.07,0.04 0.06,0.02 0.12,0.03 0.02,0 0.01,0.01 0.04,0.01 0.04,0 0.09,-0.01 0.12,-0.02 0,-0 0,-0 0,-0 0.04,-0.01 0.07,-0.03 0.1,-0.05 0.08,-0.05 0.19,-0.07 0.28,-0.12l0.06 -0.05c0.06,-0.07 0.07,-0.12 0.07,-0.23 0,-0.02 0,-0.04 -0,-0.05 -0,-0.02 -0.01,-0.02 -0.01,-0.04 -0,-0.02 -0.01,-0.05 -0.02,-0.07 -0.04,-0.1 -0.11,-0.15 -0.19,-0.21 -0.01,-0.01 -0.02,-0.01 -0.03,-0.02l-0.21 -0.15c-0,-0 -0,-0 -0,-0 -0,-0 -0,-0 -0.01,-0l-0.04 -0.03c-0.01,-0.01 -0.02,-0.01 -0.03,-0.02 -0.01,-0.01 -0.01,-0.01 -0.02,-0.02 0.02,-0 0.05,0 0.07,0l0.14 -0.02c0.06,-0.01 0.21,-0.1 0.23,-0.16 0.04,0.03 0.07,0.07 0.11,0.1 0.07,0.07 0.15,0.13 0.2,0.22l0.07 0.14c0.02,0.05 0.04,0.11 0.05,0.16 0.02,0.06 0.02,0.12 0.03,0.18 0.01,0.03 0,0.07 0,0.11 0,0.03 0.01,0.06 0.01,0.09 0,0.02 -0.01,0.07 -0.01,0.09l-0 0.2c-0.01,0.07 -0.01,0.11 -0.01,0.19 0,0.04 -0.01,0.06 -0.01,0.1 -0,0.03 -0,0.07 -0,0.1 -0,0.03 -0.01,0.05 -0.01,0.09 -0,0.04 0,0.05 -0.01,0.09 -0.01,0.03 -0,0.07 -0,0.1 -0,0.02 -0.01,0.02 -0.01,0.04 -0,0.02 -0,0.03 -0,0.05 -0,0.02 -0.01,0.02 -0.01,0.09 -0,0.02 -0.01,0.06 -0.02,0.09 -0,0.03 -0.01,0.02 -0.01,0.04 -0,0.01 -0,0.03 -0,0.05l-0.03 0.13c-0.01,0.02 -0,0.02 -0.01,0.04 -0.01,0.05 -0.03,0.11 -0.05,0.16l-0.1 0.21c-0,0 -0,0 -0,0 -0.03,0.04 -0.05,0.06 -0.09,0.09 -0.06,0.05 -0.15,0.07 -0.23,0.07 -0.04,0 -0.05,0.01 -0.09,0.01 -0.06,0 -0.26,0 -0.3,-0 -0.04,-0.01 -0.05,-0.01 -0.09,-0.01l-0.36 -0.04c-0.04,-0 -0.06,0 -0.1,-0 -0.07,-0.02 -0.21,-0 -0.29,-0.01 -0.03,-0 -0.04,-0.01 -0.09,-0.01 -0.03,0 -0.02,0 -0.05,-0.01 -0.02,-0.01 -0.02,-0 -0.04,-0.01 -0.02,-0 -0.02,-0.01 -0.03,-0.01 -0.16,-0.03 -0.26,-0.08 -0.39,-0.16l-0.09 -0.06c-0.04,-0.03 -0.05,-0.06 -0.09,-0.06 0.01,0.06 0.17,0.21 0.22,0.25l0.13 0.09c0.1,0.05 0.19,0.08 0.3,0.11l0.19 0.03c0.05,-0 0.06,0 0.1,0.01 0.03,0.01 0.07,0 0.1,0 0.04,0 0.05,0.01 0.1,0.01 0.04,0 0.06,0.01 0.09,0.01 0.01,0.04 -0.01,0.05 -0.01,0.07l-0.07 0.33c-0,0.02 -0.01,0.02 -0.01,0.03l-0.01 0.07c-0.01,0.05 -0.01,0.11 -0.02,0.16 -0.01,0.07 -0.02,0.16 -0.02,0.23 0,0.08 -0.01,0.28 0,0.34l0.01 0.08c0,0.01 0.01,0.02 0.01,0.03 0,0.01 0,0.02 0,0.04 0.02,0.08 0.06,0.18 0.11,0.24l0.08 0.07c0,0 0,0 0,0l0.16 0.1 0.56 0.29c0.01,0 0.02,0.01 0.03,0.01 0.01,0 0.01,0 0.02,0.01 0,0 0,0 0,0 0,0 0,0 0,0l0.75 0.3c0,0 0,0 0,0l0.14 0.07 0.22 0.16 0.16 0.19 0.08 0.16c0.01,0.03 0.01,0.05 0.03,0.06 0.02,-0.04 -0,-0.16 -0.02,-0.21 -0.02,-0.05 -0.04,-0.1 -0.06,-0.14 -0.01,-0.01 -0.01,-0.02 -0.02,-0.03l-0.03 -0.05c-0.05,-0.06 -0.1,-0.12 -0.16,-0.17l-0.02 -0.02c-0.01,-0.01 -0.01,-0.01 -0.02,-0.02 -0.02,-0.02 -0.05,-0.04 -0.08,-0.05 -0,-0 -0,-0 -0,-0 -0.11,-0.08 -0.24,-0.13 -0.36,-0.18l-0.47 -0.2 -0.51 -0.25c-0.04,-0.03 -0.09,-0.05 -0.13,-0.08 -0.07,-0.05 -0.17,-0.09 -0.21,-0.16 -0.01,-0.01 -0.02,-0.04 -0.03,-0.06 -0.03,-0.07 -0.04,-0.13 -0.05,-0.21 -0.02,-0.11 -0,-0.44 0.02,-0.56 0,-0.03 0,-0.05 0,-0.08 0,-0.03 0.01,-0.03 0.01,-0.07l0.06 -0.36c0,-0.01 0,-0.02 0,-0.04 0,-0.01 0.01,-0.01 0.01,-0.03 0.01,-0.04 -0,-0.03 0.02,-0.06 0.03,0 0.06,-0 0.09,0 0.03,0.01 0.04,0.01 0.08,0.01 0.11,-0 0.22,0.03 0.34,0.01 0.04,-0.01 0.05,-0.01 0.09,-0.01 0.04,0 0.04,-0.01 0.07,-0.01 0.04,-0.01 0.07,-0 0.12,-0.02 0.09,-0.04 0.17,-0.09 0.23,-0.17l0.1 -0.17 0.1 -0.31c0,-0.01 0.01,-0.01 0.01,-0.03 0,-0.03 0,-0.02 0.01,-0.04 0,-0.01 0,-0.02 0.01,-0.04 0.01,-0.08 0.03,-0.15 0.04,-0.23l0.02 -0.15c0,-0.03 -0,-0.06 0,-0.09 0.01,-0.04 0.01,-0.04 0.01,-0.08 0,-0.06 0.01,-0.09 0.01,-0.15 0,-0.03 0,-0.06 0,-0.09 0,-0.03 0.01,-0.05 0.01,-0.08 0,-0.05 -0,-0.12 0,-0.17 0,-0.06 0.01,-0.11 0.01,-0.17 -0,-0.1 0.01,-0.26 -0,-0.35 -0,-0.03 -0.01,-0.05 -0.01,-0.08 -0,-0.05 -0.02,-0.1 -0.03,-0.15 -0.01,-0.03 -0.02,-0.06 -0.03,-0.09l-0.02 -0.05c-0.01,-0.02 -0.02,-0.04 -0.01,-0.07 0.03,-0.07 0.07,-0.14 0.1,-0.21l0.11 -0.31c0.01,-0.05 0.03,-0.09 0.04,-0.14l0.01 -0.08c0,-0.03 0,-0.01 0.01,-0.03 0,-0.02 0,-0.02 0,-0.04 0,-0.03 0.01,-0.02 0.01,-0.08 0,-0.03 0.01,-0.04 0.01,-0.07 0,-0.05 -0,-0.13 0,-0.18 0.01,-0.08 -0.01,-0.23 -0.03,-0.31l-0.01 -0.02c-0,-0 -0,-0 -0,-0l-0.08 -0.17c-0.01,-0.01 -0.01,-0.02 -0.02,-0.03l-0.04 -0.06c-0.04,-0.06 -0.09,-0.12 -0.14,-0.17 -0.06,-0.07 -0.13,-0.14 -0.21,-0.19l-0.08 -0.06c-0.06,-0.05 -0.13,-0.1 -0.2,-0.14l-0.18 -0.1c-0.02,-0.01 -0.04,-0.02 -0.06,-0.03 -0.03,-0.01 -0.02,-0.03 -0.04,-0.05l-0.11 -0.24c-0.06,-0.13 -0.03,-0.04 -0.04,-0.13 -0.01,-0.08 -0.01,-0.15 -0.03,-0.22 -0,-0.01 -0,-0.01 -0,-0.02 -0.01,-0.02 -0.02,-0.05 -0.02,-0.07 -0.01,-0.02 -0.02,-0.04 -0.03,-0.06l-0.07 -0.1c-0,-0 -0,-0 -0,-0 -0.04,-0.05 -0.13,-0.14 -0.19,-0.17 -0.05,-0.03 -0.1,-0.07 -0.16,-0.09 -0,-0 -0.01,-0 -0.01,-0l-0.13 -0.06c-0.06,-0.02 -0.23,-0.07 -0.29,-0.07 -0.04,-0 -0.05,-0.01 -0.08,-0.01 -0.14,-0.02 -0.21,0.01 -0.26,0.01 -0.05,0 -0.11,0.02 -0.16,0.03l-0.07 0.02c-0.32,0.11 -0.17,0.16 -0.35,0.04l-0.15 -0.09c-0.01,-0.01 -0.02,-0.01 -0.03,-0.02 -0.03,-0.02 -0.05,-0.03 -0.08,-0.04l-0.17 -0.06c-0.02,-0.01 -0.03,-0.01 -0.05,-0.01 -0.04,-0.01 -0.1,-0.02 -0.14,-0.03 -0.02,-0.01 -0.08,-0.01 -0.11,-0.01 -0.05,-0 -0.18,-0 -0.22,0.01 -0.03,0.01 -0.01,0.01 -0.05,0.01 -0.03,0 -0.1,0.03 -0.13,0.04 -0.03,0.01 -0.05,0.02 -0.08,0.03l-0.04 0.02c-0.05,0.03 -0.1,0.05 -0.15,0.09l-0.1 0.08c-0.06,0.05 -0.12,0.11 -0.18,0.17 -0.02,0.02 -0.03,0.04 -0.05,0.07l-0.13 0.21c-0.1,0.21 -0.04,0.16 -0.15,0.2 -0.03,0.01 -0.05,0.02 -0.08,0.03l-0.2 0.09c-0,0 -0,0 -0,0l-0.01 0c-0,0 -0.01,0 -0.01,0.01l-0.24 0.14c-0.02,0.02 -0.05,0.03 -0.07,0.05 -0.01,0.01 -0.02,0.01 -0.03,0.02l-0.13 0.1c-0.08,0.07 -0.14,0.15 -0.2,0.25 -0.04,0.07 -0.07,0.13 -0.09,0.21 -0.02,0.06 -0.04,0.13 -0.05,0.16 -0.02,0.05 -0.03,0.11 -0.04,0.17 -0,0.02 -0.01,0.02 -0.01,0.05 -0,0.02 -0,0.04 -0,0.06 -0,0.01 -0.01,0.03 -0.01,0.05 -0.01,0.07 0.01,0.16 -0,0.23 -0,0.02 -0.01,0.03 -0.02,0.04 -0.1,0.08 -0.18,0.19 -0.22,0.31l-0.01 0.03c-0.01,0.02 -0.01,0.02 -0.01,0.04l-0.02 0.09c-0.01,0.07 -0.02,0.13 -0.01,0.21 0,0.05 -0.01,0.12 0.01,0.17 0.01,0.02 0.01,0.03 0.02,0.03 0.01,-0.02 0.01,-0.03 0.01,-0.05 0,-0.03 0.01,-0.02 0.01,-0.05 0,-0.02 -0,-0.04 0.01,-0.06 0.01,-0.03 0,-0.02 0.01,-0.05 0.01,-0.05 0.03,-0.1 0.04,-0.15l0.05 -0.13c0.02,-0.05 0.11,-0.2 0.15,-0.22 0,0.03 -0,0.07 0,0.1 0,0.02 0.01,0.02 0.01,0.04 0,0.02 -0,0.03 0,0.05 0,0.02 0.01,0.02 0.01,0.04 0.01,0.08 0.04,0.15 0.07,0.23 0,0.01 0,0.01 0.01,0.02l0.01 0.01c0,0 0,0 0,0 0.01,0.01 0.01,0.02 0.02,0.03l0.02 0.03c0.01,0.02 0.03,0.04 0.05,0.04 0.01,-0.03 -0.02,-0.06 -0.02,-0.08 -0.01,-0.02 -0.01,-0.02 -0.01,-0.04 -0,-0.02 -0.01,-0.02 -0.01,-0.04 -0,-0.02 -0,-0.03 -0.01,-0.05 -0.02,-0.08 -0.01,-0.06 -0.01,-0.14 -0,-0.03 -0,-0.23 0.01,-0.26 0.01,-0.06 0,-0.09 0.01,-0.14 0.01,-0.04 0.01,-0.05 0.01,-0.1 0,-0.03 0.01,-0.05 0.01,-0.09 0,-0.03 0.01,-0.06 0.01,-0.09 0,-0.02 0,-0.04 0,-0.05l0.05 -0.21c0.01,-0.05 0.03,-0.1 0.05,-0.15l0.06 -0.13c0.02,-0.05 0.05,-0.1 0.09,-0.14 0.08,-0.1 0.05,-0.06 0.15,-0.16 0.02,-0.02 0.03,-0.03 0.06,-0.05l0.24 -0.17c0.04,-0.03 0.09,-0.05 0.13,-0.08 0.03,-0.02 0.1,-0.06 0.14,-0.07 -0.01,0.03 -0.02,0.05 -0.03,0.08l-0.03 0.08c-0.03,0.11 -0.08,0.23 -0.15,0.32 -0.01,0.02 -0.07,0.07 -0.06,0.09 0.02,0 0.03,-0.01 0.04,-0.02 0.04,-0.03 0.08,-0.07 0.12,-0.11 0.07,-0.08 0.13,-0.18 0.17,-0.27l0.13 -0.26c0,-0 0,-0 0,-0l0.01 -0.02c0.01,-0.01 0.01,-0.01 0.01,-0.02l0.13 -0.24c0.01,-0.01 0.01,-0.02 0.02,-0.04 0.01,-0.01 0.01,-0.01 0.01,-0.02 0.06,-0.09 0.13,-0.17 0.22,-0.24 0.01,-0.01 0.02,-0.02 0.03,-0.03 0.03,-0.03 0.08,-0.05 0.11,-0.07l0.04 -0.02c0.02,-0.01 0.02,-0.01 0.04,-0.02 0.01,-0.01 0.03,-0.01 0.04,-0.02 0.17,-0.09 0.45,-0.09 0.63,-0.05l0.14 0.04c0.07,0.02 0.14,0.05 0.2,0.08l0.1 0.05c0.02,0.01 0.02,0.01 0.04,0.02l-0.23 0.21c-0.02,0.02 -0.1,0.08 -0.09,0.09 0.01,0.02 0.06,-0.01 0.07,-0.01 0.07,-0.02 0.12,-0.05 0.19,-0.09 0,-0 0.02,-0.01 0.02,-0.02l0.3 -0.17c0.03,-0.02 0.08,-0.04 0.12,-0.05 0.01,-0 0.01,-0 0.01,-0l0.08 -0.02c0.02,-0 0.04,-0.01 0.06,-0.01 0.03,-0 0.04,-0.01 0.06,-0.01 0.04,-0 0.1,-0 0.14,-0.01 0.13,-0.01 0.26,0.02 0.38,0.06 0.07,0.02 0.14,0.05 0.21,0.09l0.01 0c0.01,0 0.01,0 0.01,0 0.08,0.04 0.16,0.11 0.22,0.18 0.01,0.01 0.02,0.03 0.03,0.04l0.05 0.09c0.01,0.02 0.01,0.03 0.02,0.05 0.01,0.03 0.02,0.09 0.02,0.13 -0,0.08 -0.01,0.17 -0.04,0.25l-0.04 0.07c-0.08,0.1 -0.2,0.12 -0.31,0.16 -0.04,0.01 -0.08,0.02 -0.12,0.03l-0.38 0.06c-0.03,0 -0.03,0.01 -0.07,0.01 -0.03,0 -0.03,0 -0.06,0.01 -0.02,0.01 -0.04,0 -0.07,0.01l-0.06 0.01c-0.05,0 -0.15,0.03 -0.19,0.03 -0.03,0 -0.03,0.01 -0.06,0.01 -0.03,0 -0.03,-0 -0.07,0.01 -0.03,0.01 -0.11,0.01 -0.15,0.03 -0.01,0 -0.02,0 -0.03,0l-0.06 0.01c-0.04,0.01 -0.09,0.02 -0.13,0.03 -0.01,0 -0.01,0 -0.01,0l-0.14 0.04c-0.07,0.02 -0.14,0.05 -0.21,0.08l-0.05 0.02c-0,0 -0,0 -0,0l-0.04 0.02c-0.07,0.04 -0.16,0.1 -0.22,0.15 -0.09,0.09 -0.16,0.18 -0.23,0.29l-0 0.01c-0,0 -0,0 -0,0l-0.03 0.06c-0,0.01 -0.01,0.02 -0.01,0.02 -0.01,0.04 -0.02,0.07 -0.04,0.11l-0.07 0.3c-0.01,0.02 -0,0.04 -0.01,0.06 -0,0.03 -0.01,0.03 -0.01,0.06 -0,0.03 -0.01,0.03 -0.01,0.06 -0,0.02 -0.01,0.04 -0.02,0.06 -0.05,0.15 -0.15,0.28 -0.29,0.37 -0.03,0.02 -0.05,0.04 -0.09,0.06 -0.01,0.01 -0.03,0.02 -0.05,0.03 -0.01,0 -0.01,0 -0.01,0.01l-0.14 0.06c-0.02,0.01 -0.04,0.01 -0.06,0.02 -0.02,0 -0.04,0.01 -0.03,0.03 0.02,0.03 0.1,-0 0.13,-0 0.02,-0 0.03,0 0.05,-0 0.03,-0 0.01,-0.01 0.04,-0.01 0.11,-0.02 0.23,-0.07 0.32,-0.13 0.01,-0 0.01,-0 0.01,-0.01 0.06,-0.04 0.13,-0.1 0.17,-0.16 0.13,-0.19 0.11,-0.19 0.17,-0.39 0.01,-0.02 0,-0.02 0,-0.04 0,-0.03 0.01,-0.02 0.01,-0.04 0,-0.02 0,-0.03 0.01,-0.04 0.01,-0.02 0.01,-0.01 0.01,-0.04 0,-0.05 0.05,-0.17 0.06,-0.22 0,-0.01 0,-0.01 0,-0.01l0.05 -0.12c0.01,-0.01 0.01,-0.02 0.02,-0.03 0.01,-0.01 0.01,-0.02 0.02,-0.03l0.07 -0.09c0,-0 0,-0 0,-0 0.05,-0.05 0.1,-0.1 0.16,-0.14 0.07,-0.05 0.15,-0.09 0.23,-0.13 0.12,-0.05 0.33,-0.12 0.45,-0.13 0.03,-0 0.01,-0.01 0.03,-0.01 0.02,-0 0.03,0 0.04,-0l0.21 -0.04c0.03,-0 0.03,-0.01 0.08,-0.01 0.02,-0 0.09,-0.02 0.17,-0.02 0.02,-0 0.03,-0.01 0.04,-0.01 0.02,-0.01 0.22,-0.03 0.25,-0.04 0.04,-0.01 0.05,-0 0.08,-0.02l0.16 -0.03c0.02,-0 0.03,-0 0.04,-0 0.06,-0.01 0.13,-0.03 0.19,-0.04l0.06 -0.02c0.05,-0.01 0.1,-0.03 0.15,-0.06l0.06 -0.03c0.02,-0.02 0.04,-0.02 0.06,-0.04l0.05 -0.05c0.03,-0.03 0.05,-0.07 0.08,-0.11 0.01,0.02 0.01,0.03 0.02,0.05 0.08,0.15 0.13,0.3 0.2,0.43 0.04,0.09 0.08,0.2 0.11,0.3 0.01,0.02 0.01,0.02 0.01,0.04 -0.03,-0.02 -0.06,-0.03 -0.09,-0.04 -0.01,-0 -0.03,-0.01 -0.03,-0.01l-0.07 -0.02c-0.08,-0.01 -0.17,-0 -0.24,0.02 -0.1,0.04 -0.23,0.12 -0.28,0.21 -0.03,0.04 -0.05,0.08 -0.07,0.12 -0.01,0.03 -0.04,0.11 -0.04,0.13 0,0.04 0.03,-0.01 0.04,-0.01 0.03,-0.04 0.09,-0.11 0.12,-0.13 0.07,-0.06 0.12,-0.1 0.21,-0.13 0.04,-0.01 0.1,-0.03 0.14,-0.03 0.04,-0 0.05,0.01 0.08,0.01 0.05,0.01 0.09,0.02 0.14,0.05l0.15 0.09c0,0.1 0,0.2 0,0.3 -0,0.03 -0.01,0.04 -0.01,0.07 -0,0.02 0,0.05 -0,0.07 -0,0.02 -0.01,0.03 -0.01,0.07 -0,0.02 0,0.05 -0.01,0.06z"/>
   </g>
   <g>
    <path class="fil0 str0" d="M0.88 7.5c0.09,0.02 0.33,-0.01 0.41,0.01 0.03,0.01 0.03,0 0.06,0.01 0.02,0 0.07,0.02 0.09,0.03 0.11,0.05 0.15,0.21 0.16,0.32 0,0.03 0.01,0.03 0.01,0.05 0,0.02 -0,0.04 0,0.06 0,0.01 0.01,0.01 0.01,0.02 0,0.01 0,0.02 0,0.03 0,0.04 0.03,0.1 0.04,0.14 0.03,0.1 0.09,0.19 0.17,0.26l0.1 0.08c0.02,0.01 0.04,0.03 0.07,0.05l0.08 0.04c0.03,0.02 0.05,0.03 0.08,0.04l0.1 0.04c0.01,0 0.01,0 0.02,0.01l0.12 0.04c0.07,0.02 0.14,0.05 0.21,0.06l0.1 0.03c0.03,0.01 0.06,0.01 0.09,0.02l0.15 0.03c0.03,0 0.02,0.01 0.05,0.01 0.03,0 0.03,-0 0.05,0.01 0.03,0.01 0.03,0 0.06,0.01 0.02,0 0.02,0.01 0.05,0.01l0.11 0.02c0.03,0 0.04,0.02 0.04,-0.02l-0.07 -0.03c-0.19,-0.07 -0.39,-0.14 -0.59,-0.22l-0.13 -0.05c-0,-0 -0,-0 -0,-0l-0.33 -0.16c-0,-0 -0.01,-0 -0.01,-0.01l-0.01 -0c-0.07,-0.04 -0.13,-0.09 -0.19,-0.14 -0.05,-0.05 -0.09,-0.11 -0.12,-0.17 -0,-0 -0,-0 -0,-0l-0.01 -0.02c-0.01,-0.02 -0.01,-0.03 -0.02,-0.05 -0,-0.01 -0.01,-0.01 -0.01,-0.02 -0,-0.01 -0,-0.01 -0,-0.03l-0.01 -0.05c-0,-0.03 -0.01,-0.03 -0.01,-0.05 -0,-0.02 -0,-0.03 -0.01,-0.06l-0.02 -0.11c-0.01,-0.06 -0.05,-0.16 -0.09,-0.21 -0.03,-0.05 -0.09,-0.1 -0.15,-0.13 -0.08,-0.04 -0.18,-0.05 -0.27,-0.04l-0.18 0.04c-0.01,0 -0.01,0 -0.02,0.01 -0.01,0 -0.01,0 -0.03,0.01l-0.07 0.02c-0.07,0.02 -0.08,0.01 -0.08,0.05z"/>
    <path id="_1_1" class="fil1" d="M0.88 7.5c0.09,0.02 0.33,-0.01 0.41,0.01 0.03,0.01 0.03,0 0.06,0.01 0.02,0 0.07,0.02 0.09,0.03 0.11,0.05 0.15,0.21 0.16,0.32 0,0.03 0.01,0.03 0.01,0.05 0,0.02 -0,0.04 0,0.06 0,0.01 0.01,0.01 0.01,0.02 0,0.01 0,0.02 0,0.03 0,0.04 0.03,0.1 0.04,0.14 0.03,0.1 0.09,0.19 0.17,0.26l0.1 0.08c0.02,0.01 0.04,0.03 0.07,0.05l0.08 0.04c0.03,0.02 0.05,0.03 0.08,0.04l0.1 0.04c0.01,0 0.01,0 0.02,0.01l0.12 0.04c0.07,0.02 0.14,0.05 0.21,0.06l0.1 0.03c0.03,0.01 0.06,0.01 0.09,0.02l0.15 0.03c0.03,0 0.02,0.01 0.05,0.01 0.03,0 0.03,-0 0.05,0.01 0.03,0.01 0.03,0 0.06,0.01 0.02,0 0.02,0.01 0.05,0.01l0.11 0.02c0.03,0 0.04,0.02 0.04,-0.02l-0.07 -0.03c-0.19,-0.07 -0.39,-0.14 -0.59,-0.22l-0.13 -0.05c-0,-0 -0,-0 -0,-0l-0.33 -0.16c-0,-0 -0.01,-0 -0.01,-0.01l-0.01 -0c-0.07,-0.04 -0.13,-0.09 -0.19,-0.14 -0.05,-0.05 -0.09,-0.11 -0.12,-0.17 -0,-0 -0,-0 -0,-0l-0.01 -0.02c-0.01,-0.02 -0.01,-0.03 -0.02,-0.05 -0,-0.01 -0.01,-0.01 -0.01,-0.02 -0,-0.01 -0,-0.01 -0,-0.03l-0.01 -0.05c-0,-0.03 -0.01,-0.03 -0.01,-0.05 -0,-0.02 -0,-0.03 -0.01,-0.06l-0.02 -0.11c-0.01,-0.06 -0.05,-0.16 -0.09,-0.21 -0.03,-0.05 -0.09,-0.1 -0.15,-0.13 -0.08,-0.04 -0.18,-0.05 -0.27,-0.04l-0.18 0.04c-0.01,0 -0.01,0 -0.02,0.01 -0.01,0 -0.01,0 -0.03,0.01l-0.07 0.02c-0.07,0.02 -0.08,0.01 -0.08,0.05z"/>
   </g>
   <g>
    <path class="fil0 str0" d="M6.18 5.04c0,-0.01 0.01,-0.02 0.01,-0.04 0,-0.02 -0,-0.03 0,-0.05 0.01,-0.06 0.05,-0.17 0.09,-0.21 0.01,-0.01 0.02,-0.02 0.03,-0.03 0.08,-0.1 0.26,-0.13 0.37,-0.09 0.03,0.01 0.05,0.02 0.07,0.04 0.03,0.02 0.06,0.05 0.08,0.1l0.01 0.02c0.01,0.04 0.01,0.11 -0.01,0.14 -0.04,0.05 -0.11,0.07 -0.17,0.07 -0.33,0.03 -0.27,0.23 -0.36,0.28 -0.05,0.03 -0.1,-0.08 -0.1,-0.13 -0,-0.05 -0.01,-0.03 -0.01,-0.1zm0.78 -0.17c0.01,-0.12 -0.06,-0.24 -0.17,-0.31 -0.03,-0.02 -0.05,-0.03 -0.08,-0.04 -0.07,-0.03 -0.14,-0.02 -0.22,-0.02 -0.07,-0 -0.04,0.01 -0.08,0.01 -0.01,0 -0.01,-0 -0.02,0 -0.01,0 0,-0 -0.01,0 -0.05,0.02 -0.1,0.04 -0.15,0.08 -0.09,0.08 -0.15,0.17 -0.19,0.29 -0.03,0.11 -0.02,0.11 -0.03,0.2 -0.02,0.27 0.17,0.44 0.36,0.34 0.08,-0.04 0.11,-0.1 0.14,-0.19 0.05,-0.14 0.18,-0.08 0.31,-0.16 0.03,-0.02 0.03,-0.01 0.07,-0.05 0.04,-0.04 0.06,-0.11 0.07,-0.17z"/>
    <path id="_1_2" class="fil1" d="M6.18 5.04c0,-0.01 0.01,-0.02 0.01,-0.04 0,-0.02 -0,-0.03 0,-0.05 0.01,-0.06 0.05,-0.17 0.09,-0.21 0.01,-0.01 0.02,-0.02 0.03,-0.03 0.08,-0.1 0.26,-0.13 0.37,-0.09 0.03,0.01 0.05,0.02 0.07,0.04 0.03,0.02 0.06,0.05 0.08,0.1l0.01 0.02c0.01,0.04 0.01,0.11 -0.01,0.14 -0.04,0.05 -0.11,0.07 -0.17,0.07 -0.33,0.03 -0.27,0.23 -0.36,0.28 -0.05,0.03 -0.1,-0.08 -0.1,-0.13 -0,-0.05 -0.01,-0.03 -0.01,-0.1zm0.78 -0.17c0.01,-0.12 -0.06,-0.24 -0.17,-0.31 -0.03,-0.02 -0.05,-0.03 -0.08,-0.04 -0.07,-0.03 -0.14,-0.02 -0.22,-0.02 -0.07,-0 -0.04,0.01 -0.08,0.01 -0.01,0 -0.01,-0 -0.02,0 -0.01,0 0,-0 -0.01,0 -0.05,0.02 -0.1,0.04 -0.15,0.08 -0.09,0.08 -0.15,0.17 -0.19,0.29 -0.03,0.11 -0.02,0.11 -0.03,0.2 -0.02,0.27 0.17,0.44 0.36,0.34 0.08,-0.04 0.11,-0.1 0.14,-0.19 0.05,-0.14 0.18,-0.08 0.31,-0.16 0.03,-0.02 0.03,-0.01 0.07,-0.05 0.04,-0.04 0.06,-0.11 0.07,-0.17z"/>
   </g>
   <g>
    <path class="fil0 str0" d="M6.42 2.57c-0.02,0 -0.03,0.01 -0.04,0.01 -0.02,0 -0.03,0 -0.04,0.01l-0.2 0.08 -0.12 0.07c-0.03,0.02 -0.08,0.06 -0.1,0.09 -0.06,0.05 -0.09,0.09 -0.13,0.15l-0.08 0.11c-0.01,0.02 -0.02,0.04 -0.03,0.06 -0,0 -0.1,0.17 -0.03,0.13l0.08 -0.07c0.12,-0.11 0.17,-0.15 0.31,-0.25l0.19 -0.12c0.04,-0.02 0.18,-0.07 0.2,-0.08l0.05 -0.01c0.02,-0 0.03,0 0.05,-0 0.01,-0 0.02,-0.01 0.03,-0.01l0.19 0 0.21 0.05c0.02,0 0.02,-0.01 0.02,-0.01 0,-0.03 -0.12,-0.11 -0.15,-0.13 -0.02,-0.01 -0.03,-0.01 -0.05,-0.02l-0.11 -0.03c-0.03,-0 -0.03,-0.01 -0.06,-0.01l-0.19 0z"/>
    <path id="_1_3" class="fil1" d="M6.42 2.57c-0.02,0 -0.03,0.01 -0.04,0.01 -0.02,0 -0.03,0 -0.04,0.01l-0.2 0.08 -0.12 0.07c-0.03,0.02 -0.08,0.06 -0.1,0.09 -0.06,0.05 -0.09,0.09 -0.13,0.15l-0.08 0.11c-0.01,0.02 -0.02,0.04 -0.03,0.06 -0,0 -0.1,0.17 -0.03,0.13l0.08 -0.07c0.12,-0.11 0.17,-0.15 0.31,-0.25l0.19 -0.12c0.04,-0.02 0.18,-0.07 0.2,-0.08l0.05 -0.01c0.02,-0 0.03,0 0.05,-0 0.01,-0 0.02,-0.01 0.03,-0.01l0.19 0 0.21 0.05c0.02,0 0.02,-0.01 0.02,-0.01 0,-0.03 -0.12,-0.11 -0.15,-0.13 -0.02,-0.01 -0.03,-0.01 -0.05,-0.02l-0.11 -0.03c-0.03,-0 -0.03,-0.01 -0.06,-0.01l-0.19 0z"/>
   </g>
   <g>
    <path class="fil0 str0" d="M3.01 5.4c-0.01,0.04 0.07,0.17 0.09,0.21 0.03,0.06 0.14,0.17 0.2,0.21 0.02,0.01 0.04,0.03 0.07,0.04 0.01,0.01 0.02,0.01 0.03,0.02 0.01,0 0.01,0.01 0.02,0.01l0.13 0.05c0.02,0 0.03,0 0.04,0.01 0.04,0.01 0.06,0 0.09,0.01 0.08,0.01 0.02,0 0.08,-0 0.04,-0 0.02,0.01 0.07,-0.01 0.03,-0.01 0.15,-0.04 0.16,-0.07 -0.01,-0.02 -0,-0.02 -0.07,-0.02 -0.04,-0 -0.04,-0 -0.08,-0.01 -0.01,-0 -0.02,-0 -0.04,-0l-0.3 -0.11c-0,-0 -0,-0 -0,-0l-0.06 -0.04c-0.1,-0.07 -0.12,-0.09 -0.21,-0.15l-0.18 -0.14c-0.03,-0.02 -0.03,0 -0.03,0z"/>
    <path id="_1_4" class="fil1" d="M3.01 5.4c-0.01,0.04 0.07,0.17 0.09,0.21 0.03,0.06 0.14,0.17 0.2,0.21 0.02,0.01 0.04,0.03 0.07,0.04 0.01,0.01 0.02,0.01 0.03,0.02 0.01,0 0.01,0.01 0.02,0.01l0.13 0.05c0.02,0 0.03,0 0.04,0.01 0.04,0.01 0.06,0 0.09,0.01 0.08,0.01 0.02,0 0.08,-0 0.04,-0 0.02,0.01 0.07,-0.01 0.03,-0.01 0.15,-0.04 0.16,-0.07 -0.01,-0.02 -0,-0.02 -0.07,-0.02 -0.04,-0 -0.04,-0 -0.08,-0.01 -0.01,-0 -0.02,-0 -0.04,-0l-0.3 -0.11c-0,-0 -0,-0 -0,-0l-0.06 -0.04c-0.1,-0.07 -0.12,-0.09 -0.21,-0.15l-0.18 -0.14c-0.03,-0.02 -0.03,0 -0.03,0z"/>
   </g>
   <g>
    <path class="fil0 str0" d="M8.07 5.57c0.02,0 0.02,-0 0.05,-0.01 0.04,-0.01 0.01,0.01 0.1,-0.01 0.15,-0.03 0.26,-0.08 0.37,-0.18 0.02,-0.02 0.05,-0.05 0.04,-0.08 -0.03,-0.01 -0.02,0 -0.05,0.01 -0.03,0 -0.03,0 -0.06,0.01 -0.02,0.01 -0.04,0 -0.06,0.01 -0.02,0 -0.03,0.01 -0.06,0.01 -0.03,0 -0.03,0 -0.06,0.01 -0.02,0.01 -0.04,0 -0.06,0.01l-0.09 0.02c-0.02,0 -0.01,-0 -0.03,0 -0.02,0.01 -0,0.01 -0.03,0.01l-0.09 0.01c-0.02,0 -0.04,0 -0.06,0.01 -0.02,0.01 -0.04,0 -0.06,0.01 -0.06,0 -0.22,-0.01 -0.26,0.02 0,0.02 0.06,0.05 0.08,0.06l0.06 0.03c0.04,0.02 0.06,0.02 0.09,0.03 0.02,0.01 0.04,0.01 0.05,0.01l0.14 0.01z"/>
    <path id="_1_5" class="fil1" d="M8.07 5.57c0.02,0 0.02,-0 0.05,-0.01 0.04,-0.01 0.01,0.01 0.1,-0.01 0.15,-0.03 0.26,-0.08 0.37,-0.18 0.02,-0.02 0.05,-0.05 0.04,-0.08 -0.03,-0.01 -0.02,0 -0.05,0.01 -0.03,0 -0.03,0 -0.06,0.01 -0.02,0.01 -0.04,0 -0.06,0.01 -0.02,0 -0.03,0.01 -0.06,0.01 -0.03,0 -0.03,0 -0.06,0.01 -0.02,0.01 -0.04,0 -0.06,0.01l-0.09 0.02c-0.02,0 -0.01,-0 -0.03,0 -0.02,0.01 -0,0.01 -0.03,0.01l-0.09 0.01c-0.02,0 -0.04,0 -0.06,0.01 -0.02,0.01 -0.04,0 -0.06,0.01 -0.06,0 -0.22,-0.01 -0.26,0.02 0,0.02 0.06,0.05 0.08,0.06l0.06 0.03c0.04,0.02 0.06,0.02 0.09,0.03 0.02,0.01 0.04,0.01 0.05,0.01l0.14 0.01z"/>
   </g>
   <g>
    <path class="fil0 str0" d="M6.58 9.12c-0.06,-0.01 -0.17,-0.07 -0.17,-0.03l0.03 0.05c0.03,0.04 0.03,0.04 0.07,0.08 0.02,0.01 0.03,0.02 0.04,0.03 0.03,0.02 0.06,0.04 0.1,0.05 0.04,0.01 0.07,0.03 0.12,0.04 0.01,0 0.02,0 0.04,0 0.02,0 0.01,0 0.03,0.01 0.01,0 0.05,0 0.07,0l0.14 -0.02c0.06,-0.02 0.08,-0.02 0.14,-0.05 0,-0 0.01,-0.01 0.01,-0.01l0.08 -0.05c0,-0 0.01,-0.01 0.01,-0.01 0.03,-0.03 0.05,-0.03 0.04,-0.05 -0.01,-0.02 -0.04,-0.01 -0.07,-0.01 -0.03,0 -0.03,0.01 -0.06,0.01 -0.1,-0 -0.2,0.03 -0.3,0.01 -0.05,-0.01 -0.1,-0 -0.14,-0.01 -0.03,-0.01 -0.05,-0 -0.07,-0.01l-0.12 -0.03z"/>
    <path id="_1_6" class="fil1" d="M6.58 9.12c-0.06,-0.01 -0.17,-0.07 -0.17,-0.03l0.03 0.05c0.03,0.04 0.03,0.04 0.07,0.08 0.02,0.01 0.03,0.02 0.04,0.03 0.03,0.02 0.06,0.04 0.1,0.05 0.04,0.01 0.07,0.03 0.12,0.04 0.01,0 0.02,0 0.04,0 0.02,0 0.01,0 0.03,0.01 0.01,0 0.05,0 0.07,0l0.14 -0.02c0.06,-0.02 0.08,-0.02 0.14,-0.05 0,-0 0.01,-0.01 0.01,-0.01l0.08 -0.05c0,-0 0.01,-0.01 0.01,-0.01 0.03,-0.03 0.05,-0.03 0.04,-0.05 -0.01,-0.02 -0.04,-0.01 -0.07,-0.01 -0.03,0 -0.03,0.01 -0.06,0.01 -0.1,-0 -0.2,0.03 -0.3,0.01 -0.05,-0.01 -0.1,-0 -0.14,-0.01 -0.03,-0.01 -0.05,-0 -0.07,-0.01l-0.12 -0.03z"/>
   </g>
   <g>
    <path class="fil0 str0" d="M6.73 4.04c0.04,-0.01 0.1,-0.04 0.13,-0.06l0.02 -0.01c0.03,-0.02 0.06,-0.05 0.08,-0.07 0.03,-0.04 0.06,-0.09 0.06,-0.13 -0.03,0 -0.11,0.04 -0.15,0.05 -0,0 -0,0 -0,0 -0.04,0.02 -0.12,0.04 -0.16,0.04l-0.17 0.03c-0.03,0 -0.06,-0 -0.1,0 -0.03,0 -0.04,0.01 -0.09,0.01 -0.11,-0 -0.08,0.01 -0.14,0.01 -0.03,0 -0.09,-0.01 -0.07,0.03 0.01,0.03 0.13,0.08 0.16,0.09 0.06,0.03 0.18,0.05 0.24,0.05l0.16 -0.03z"/>
    <path id="_1_7" class="fil1" d="M6.73 4.04c0.04,-0.01 0.1,-0.04 0.13,-0.06l0.02 -0.01c0.03,-0.02 0.06,-0.05 0.08,-0.07 0.03,-0.04 0.06,-0.09 0.06,-0.13 -0.03,0 -0.11,0.04 -0.15,0.05 -0,0 -0,0 -0,0 -0.04,0.02 -0.12,0.04 -0.16,0.04l-0.17 0.03c-0.03,0 -0.06,-0 -0.1,0 -0.03,0 -0.04,0.01 -0.09,0.01 -0.11,-0 -0.08,0.01 -0.14,0.01 -0.03,0 -0.09,-0.01 -0.07,0.03 0.01,0.03 0.13,0.08 0.16,0.09 0.06,0.03 0.18,0.05 0.24,0.05l0.16 -0.03z"/>
   </g>
  </g>
 </g>
</svg>
